<?xml version="1.0" standalone="no"?>
<!DOCTYPE svg PUBLIC "-//W3C//DTD SVG 20010904//EN"
 "http://www.w3.org/TR/2001/REC-SVG-20010904/DTD/svg10.dtd">
<svg version="1.0" xmlns="http://www.w3.org/2000/svg"
 width="200.000000pt" height="200.000000pt" viewBox="0 0 200.000000 200.000000"
 preserveAspectRatio="xMidYMid meet">

<g transform="translate(0.000000,200.000000) scale(0.100000,-0.100000)"
fill="#000000" stroke="none">
<path d="M830 1989 c-110 -10 -202 -39 -324 -102 -114 -59 -189 -124 -275
-237 -113 -147 -147 -243 -157 -440 -8 -137 9 -242 60 -384 63 -174 100 -232
249 -392 48 -52 90 -111 117 -164 69 -131 178 -225 300 -256 76 -19 218 -14
314 12 137 36 298 145 447 301 130 136 240 344 300 568 31 113 33 130 33 290
1 160 -1 175 -26 246 -49 137 -143 273 -253 362 -183 149 -484 224 -785 196z
m-55 -131 c52 -14 57 -23 15 -31 -35 -8 -40 -26 -7 -28 63 -4 121 5 207 33 79
26 111 31 190 31 83 0 105 -4 175 -31 106 -42 160 -77 231 -151 72 -76 184
-251 220 -346 22 -57 28 -91 32 -185 5 -131 -4 -159 -66 -199 -79 -52 -187
-37 -258 35 -45 45 -71 57 -60 28 16 -41 16 -92 2 -133 -9 -24 -15 -46 -13
-48 5 -4 25 35 40 81 8 22 16 35 19 30 9 -14 -24 -107 -55 -153 -57 -85 -160
-122 -225 -81 -19 11 -41 39 -52 62 l-19 42 -7 -28 c-3 -15 -3 -67 0 -115 7
-79 5 -89 -14 -114 -14 -18 -31 -27 -49 -27 -25 0 -29 5 -34 38 -10 59 -35
136 -52 157 -14 18 -15 11 -9 -86 5 -91 4 -108 -11 -122 -19 -19 -33 -21 -68
-8 -21 8 -26 19 -31 63 -10 77 -27 150 -35 143 -3 -4 -9 -53 -12 -110 -6 -111
-16 -135 -55 -135 -54 0 -70 17 -83 93 -7 40 -19 86 -27 102 -13 28 -14 24
-10 -64 5 -117 1 -131 -33 -131 -42 0 -61 20 -66 70 -5 52 -25 129 -35 135 -4
2 -5 -32 -2 -75 5 -88 -4 -110 -44 -110 -36 0 -54 36 -54 105 0 66 -8 79 -75
119 -16 10 -42 30 -57 44 -15 14 -31 23 -34 19 -12 -11 25 -56 67 -83 51 -32
45 -42 -8 -15 -53 27 -89 76 -124 172 -29 78 -29 80 -7 65 30 -21 57 -20 93 4
40 26 52 25 104 -10 53 -36 71 -37 107 -6 27 22 27 25 16 63 -28 93 -97 137
-205 131 -65 -4 -71 -6 -103 -41 -19 -20 -34 -47 -34 -59 -1 -22 -1 -23 -13
-3 -17 29 -16 313 2 385 31 124 105 254 196 343 60 60 119 92 225 124 86 25
140 28 205 11z m823 -981 c8 -16 13 -65 13 -119 1 -107 15 -100 28 14 5 53 10
68 16 54 5 -11 4 -57 -2 -105 -6 -47 -10 -88 -8 -89 7 -7 25 75 31 141 10 95
28 87 22 -10 -5 -74 -5 -76 8 -38 7 22 13 54 14 70 1 17 6 39 11 50 7 14 8 7
4 -28 -6 -58 8 -54 24 7 11 44 31 71 31 43 0 -32 -31 -110 -95 -239 -58 -119
-80 -151 -160 -240 -186 -207 -354 -310 -545 -337 -195 -26 -347 57 -465 257
-30 51 -55 97 -55 102 0 5 12 13 26 16 19 5 32 0 55 -22 16 -15 29 -33 29 -40
0 -7 11 -26 25 -41 23 -27 24 -27 25 -6 0 12 -4 33 -10 47 -8 21 -6 27 10 36
29 15 65 12 82 -7 9 -10 27 -41 42 -70 39 -78 50 -79 43 -2 -4 46 -2 69 8 82
22 31 53 4 93 -81 l36 -77 4 39 c2 22 -2 59 -8 83 -12 51 -8 63 24 63 36 0 73
-35 92 -88 22 -60 30 -69 39 -43 9 29 -3 100 -22 130 -13 20 -13 25 -2 32 27
17 49 9 69 -24 11 -17 20 -41 20 -53 0 -31 20 -84 32 -84 7 0 8 18 4 49 -15
117 89 123 114 6 3 -17 16 -36 32 -44 24 -14 29 -13 67 12 49 33 56 58 7 28
-47 -29 -64 -26 -26 5 37 32 33 41 -9 20 -34 -18 -41 -19 -41 -8 0 4 16 16 35
26 49 27 128 113 159 174 40 79 59 166 53 242 -3 36 -8 73 -12 84 -13 30 18
14 33 -17z"/>
<path d="M1134 1536 c-17 -13 -15 -14 26 -9 57 7 77 23 29 23 -19 0 -44 -6
-55 -14z"/>
<path d="M1153 1502 c-28 -9 -113 -69 -113 -80 0 -5 30 6 66 25 78 39 137 43
202 13 35 -16 42 -17 42 -4 0 36 -129 66 -197 46z"/>
<path d="M1572 1471 c2 -7 7 -12 11 -12 12 1 9 15 -3 20 -7 2 -11 -2 -8 -8z"/>
<path d="M267 1348 c-15 -11 -9 -12 33 -10 27 2 50 8 50 13 0 13 -64 11 -83
-3z"/>
<path d="M1110 1341 c-99 -30 -195 -123 -221 -213 -11 -40 4 -94 31 -108 41
-22 69 -11 138 53 87 79 119 90 208 70 78 -18 116 -7 134 37 22 53 -35 126
-123 159 -32 12 -129 13 -167 2z"/>
<path d="M284 1320 c-31 -10 -124 -99 -124 -120 0 -6 21 5 46 24 25 19 61 40
81 47 35 11 112 8 146 -6 26 -11 22 21 -5 39 -30 19 -105 27 -144 16z"/>
<path d="M636 994 c-3 -9 -6 -25 -6 -36 0 -10 -14 -39 -31 -64 -37 -55 -37
-97 1 -103 18 -2 32 6 52 30 l28 33 0 -31 c0 -29 21 -63 39 -63 20 0 41 40 41
78 0 56 -15 90 -58 135 -39 40 -56 46 -66 21z"/>
<path d="M1720 1000 c0 -5 5 -10 10 -10 6 0 10 5 10 10 0 6 -4 10 -10 10 -5 0
-10 -4 -10 -10z"/>
<path d="M1626 978 c8 -27 12 -33 19 -27 7 8 -7 49 -17 49 -5 0 -6 -10 -2 -22z"/>
<path d="M1660 980 c11 -20 30 -28 30 -12 0 11 -22 32 -32 32 -5 0 -4 -9 2
-20z"/>
<path d="M1592 973 c2 -9 8 -18 15 -20 7 -3 9 3 6 16 -6 25 -26 28 -21 4z"/>
<path d="M1381 776 c-16 -19 -11 -29 8 -17 7 5 12 14 9 21 -3 9 -8 7 -17 -4z"/>
<path d="M980 155 c0 -8 7 -15 15 -15 8 0 15 7 15 15 0 8 -7 15 -15 15 -8 0
-15 -7 -15 -15z"/>
<path d="M876 101 c-4 -5 -2 -12 3 -15 5 -4 12 -2 15 3 4 5 2 12 -3 15 -5 4
-12 2 -15 -3z"/>
</g>
</svg>
