<?xml version="1.0" standalone="no"?>
<!DOCTYPE svg PUBLIC "-//W3C//DTD SVG 20010904//EN"
 "http://www.w3.org/TR/2001/REC-SVG-20010904/DTD/svg10.dtd">
<svg version="1.0" xmlns="http://www.w3.org/2000/svg"
 width="1350.000000pt" height="1350.000000pt" viewBox="0 0 1350.000000 1350.000000"
 preserveAspectRatio="xMidYMid meet">
<metadata>
Created by potrace 1.10, written by Peter Selinger 2001-2011
</metadata>
<g transform="translate(0.000000,1350.000000) scale(0.100000,-0.100000)"
fill="#000000" stroke="none">
<path d="M0 6750 l0 -6750 6750 0 6750 0 0 6750 0 6750 -6750 0 -6750 0 0
-6750z m8674 5324 c16 -6 23 -34 9 -34 -11 1 -43 26 -43 34 0 8 14 8 34 0z
m181 -130 c22 -16 36 -21 40 -14 4 6 15 8 26 5 23 -8 69 -48 69 -62 0 -17 55
-63 76 -63 10 0 35 -10 54 -21 86 -53 186 -100 203 -95 12 3 21 -3 27 -19 10
-25 43 -49 54 -38 3 3 6 15 6 25 0 19 15 24 25 8 3 -5 15 -10 25 -10 10 0 27
-11 38 -25 11 -14 28 -25 39 -25 14 0 22 -12 32 -47 20 -76 26 -86 87 -151 59
-63 78 -73 88 -47 9 23 -4 45 -30 51 -31 8 -33 53 -3 79 19 18 22 18 47 3 15
-9 31 -25 37 -37 5 -12 15 -21 21 -21 6 0 20 -11 32 -25 12 -14 32 -25 44 -25
27 0 88 -57 88 -82 0 -24 21 -23 27 2 5 20 33 29 33 10 0 -5 16 -28 36 -50 29
-32 43 -40 70 -40 24 0 37 -6 41 -17 4 -10 17 -32 31 -50 13 -18 21 -37 18
-42 -4 -6 7 -8 29 -4 42 7 57 -4 87 -63 20 -41 24 -44 62 -44 31 -1 49 -8 74
-30 17 -16 32 -38 32 -48 0 -26 11 -34 27 -20 11 9 17 9 24 -3 13 -21 11 -26
-11 -32 -11 -3 -20 -10 -20 -16 0 -17 48 -44 67 -36 16 6 15 8 -7 26 l-25 20
35 -6 c48 -10 65 -27 51 -53 -17 -31 -14 -47 4 -32 13 11 20 9 40 -10 19 -18
22 -27 14 -34 -8 -8 -13 -7 -16 2 -3 6 -11 12 -18 12 -11 0 -11 -6 3 -30 18
-31 37 -39 45 -17 4 9 7 9 18 0 10 -10 10 -17 0 -37 -11 -20 -10 -28 5 -52 21
-33 34 -44 52 -44 20 0 14 30 -10 50 l-23 18 28 11 c20 8 34 8 48 1 21 -12 25
-50 8 -67 -18 -18 -3 -46 21 -38 14 4 22 1 27 -12 4 -10 13 -24 20 -31 7 -7
13 -22 13 -32 0 -19 57 -70 78 -70 7 0 12 7 12 15 0 17 18 19 39 6 11 -7 9
-11 -8 -20 -28 -16 -27 -31 4 -31 14 0 25 5 25 10 0 6 8 10 17 10 13 0 14 -3
5 -12 -7 -7 -12 -20 -12 -30 0 -14 -6 -16 -30 -11 -27 5 -30 3 -30 -21 0 -31
24 -44 50 -28 30 18 54 -17 45 -67 -5 -33 -3 -41 14 -50 11 -6 26 -8 35 -5 10
4 22 -10 42 -50 15 -31 31 -56 35 -56 4 0 10 -15 13 -32 4 -18 15 -44 26 -58
19 -25 19 -25 34 -5 13 17 15 17 16 3 0 -9 -6 -18 -12 -21 -10 -4 -10 -7 -1
-17 10 -11 15 -11 27 0 13 10 17 8 25 -13 6 -14 26 -46 45 -72 20 -26 36 -54
36 -62 0 -9 7 -21 16 -27 9 -7 17 -30 18 -56 3 -33 10 -50 32 -68 l28 -24 -24
-18 c-21 -16 -22 -20 -10 -35 8 -10 22 -14 36 -11 24 6 34 -8 34 -49 0 -12 7
-25 15 -29 8 -3 15 -15 15 -26 0 -11 7 -20 15 -20 10 0 15 10 15 29 0 17 5 33
10 36 6 4 10 -9 10 -33 0 -63 11 -100 37 -126 22 -23 23 -25 7 -34 -16 -9 -16
-14 -6 -37 9 -20 17 -25 32 -20 18 6 20 2 20 -39 0 -25 5 -48 10 -51 6 -3 10
-14 10 -24 0 -30 28 -77 55 -91 31 -16 32 -36 3 -46 -21 -6 -21 -7 -3 -20 16
-12 20 -11 32 4 14 16 14 16 9 0 -5 -18 1 -26 38 -52 17 -12 16 -15 -18 -52
-40 -43 -42 -49 -22 -61 8 -4 16 -19 18 -33 2 -20 10 -26 34 -28 26 -3 30 -7
27 -26 -3 -13 2 -28 11 -35 20 -17 21 -67 1 -79 -10 -5 -13 -15 -9 -25 8 -21
34 -22 34 -2 0 19 10 19 38 -1 18 -12 20 -19 12 -30 -9 -10 -9 -22 0 -49 6
-19 10 -41 7 -48 -6 -17 11 -47 26 -43 6 1 9 1 5 -1 -16 -9 -7 -51 14 -65 20
-14 20 -15 4 -41 -10 -14 -27 -29 -38 -33 -13 -4 -17 -9 -10 -16 6 -6 16 -7
24 -2 7 5 25 9 39 9 25 0 26 -2 17 -30 -21 -65 -21 -72 3 -78 22 -6 22 -7 6
-25 -23 -25 -21 -32 7 -32 16 0 26 -7 29 -22 7 -24 -3 -41 -10 -20 -3 6 -16
12 -29 12 -40 0 -32 -38 13 -56 31 -14 34 -17 20 -25 -21 -12 -22 -33 -2 -49
21 -18 18 -48 -6 -55 -37 -12 -14 -30 34 -27 l47 4 0 -43 c0 -39 -1 -41 -17
-27 -13 11 -25 13 -41 7 -23 -9 -23 -9 -6 -38 10 -16 28 -35 41 -42 26 -14 30
-34 8 -43 -8 -3 -15 -14 -15 -24 0 -11 7 -25 15 -32 8 -7 15 -20 15 -29 0 -9
5 -22 12 -29 9 -9 8 -18 -1 -39 l-13 -28 -18 23 c-25 30 -30 28 -30 -12 0 -26
5 -35 22 -39 14 -4 29 0 40 10 17 15 18 15 18 -5 0 -12 -4 -22 -10 -22 -5 0
-10 -7 -10 -15 0 -8 -11 -22 -25 -31 -30 -20 -32 -35 -4 -31 14 1 27 -9 42
-35 12 -20 18 -40 14 -45 -5 -4 -13 0 -18 10 -6 9 -16 17 -24 17 -28 0 -25
-20 8 -57 54 -62 69 -91 62 -123 -3 -16 -1 -38 5 -50 13 -24 -4 -90 -26 -103
-19 -11 -18 -46 1 -53 22 -9 18 -34 -5 -34 -38 0 -35 -30 7 -68 31 -28 42 -47
47 -79 3 -23 9 -48 12 -57 9 -23 -19 -20 -42 5 -15 16 -16 24 -6 39 19 30 15
40 -23 56 -37 15 -71 9 -41 -8 11 -6 16 -23 16 -53 0 -24 5 -47 10 -50 6 -3
10 -15 10 -26 0 -10 4 -19 10 -19 11 0 40 -53 39 -72 0 -10 -2 -10 -5 -1 -3 7
-16 10 -32 7 -20 -4 -33 0 -46 15 -35 39 -61 18 -36 -30 7 -13 21 -19 45 -19
42 0 48 -9 29 -46 -13 -24 -14 -35 -4 -64 10 -25 10 -35 1 -38 -15 -5 -14 -21
4 -56 19 -37 11 -46 -16 -18 -11 13 -24 20 -30 17 -14 -9 -11 -35 6 -41 8 -4
15 -15 15 -26 0 -11 9 -31 20 -45 19 -25 20 -27 3 -46 -13 -15 -15 -21 -5 -24
19 -7 14 -31 -8 -38 -13 -4 -20 -15 -20 -31 0 -14 -7 -27 -15 -31 -13 -5 -13
-8 5 -20 11 -8 20 -21 20 -29 0 -8 5 -14 10 -14 6 0 10 -5 10 -10 0 -6 -8 -5
-20 2 -24 15 -33 6 -33 -32 0 -32 -6 -37 -24 -19 -15 15 -43 4 -43 -16 0 -9 8
-30 17 -48 36 -66 42 -94 24 -112 -14 -14 -15 -18 -1 -43 13 -22 14 -31 3 -52
-7 -14 -20 -25 -30 -26 -37 -2 -43 -4 -43 -15 0 -5 4 -8 9 -4 12 7 62 -45 55
-57 -3 -4 -14 -8 -25 -8 -10 0 -19 -7 -19 -15 0 -8 -9 -15 -20 -15 -11 0 -20
-7 -20 -15 0 -8 9 -15 20 -15 11 0 20 5 20 10 0 6 4 10 8 10 9 0 34 -62 27
-68 -2 -3 -25 1 -51 7 -33 8 -50 9 -57 2 -8 -8 -1 -13 22 -17 30 -6 32 -9 27
-38 -9 -45 -9 -49 -1 -70 7 -16 5 -18 -14 -13 -15 4 -24 0 -28 -11 -4 -9 -15
-23 -26 -31 -14 -10 -18 -21 -13 -42 3 -15 1 -31 -4 -34 -6 -3 -10 -15 -10
-26 0 -14 7 -19 28 -19 l27 -1 -27 -15 c-16 -8 -28 -19 -28 -24 0 -4 -13 -22
-30 -38 -28 -29 -29 -30 -10 -47 17 -16 19 -16 29 3 6 11 20 22 31 25 l20 5
-20 -28 c-11 -15 -20 -37 -20 -48 0 -12 -4 -24 -10 -27 -5 -3 -10 -19 -10 -36
0 -23 -4 -29 -23 -29 -12 0 -28 -9 -35 -21 -7 -11 -29 -27 -48 -35 -37 -16
-42 -25 -19 -44 8 -7 15 -21 15 -31 0 -10 8 -23 18 -28 19 -11 11 -14 -30 -11
-22 1 -28 -3 -28 -18 0 -11 9 -22 20 -25 25 -6 25 -18 2 -48 l-19 -22 -35 27
c-26 19 -37 23 -40 14 -7 -19 36 -55 63 -54 15 1 25 -5 27 -16 3 -14 -3 -18
-28 -18 -18 0 -33 -6 -36 -15 -4 -8 -15 -15 -26 -15 -14 0 -19 -6 -17 -22 1
-13 -3 -36 -10 -51 -14 -36 -10 -43 31 -51 l33 -7 -24 -19 c-13 -11 -35 -20
-49 -20 -38 0 -92 -22 -92 -37 0 -8 13 -22 30 -31 38 -21 33 -37 -11 -37 -42
0 -59 -10 -59 -36 0 -28 30 -37 46 -14 13 18 14 17 14 -8 0 -24 -3 -27 -24
-21 -20 5 -27 0 -39 -23 -7 -15 -12 -36 -9 -46 2 -12 -3 -20 -17 -24 -26 -7
-27 -21 -4 -38 17 -13 17 -14 0 -32 -9 -11 -17 -25 -17 -31 0 -7 -7 -12 -15
-12 -8 0 -15 7 -15 15 0 18 -27 20 -33 3 -2 -7 3 -18 11 -24 23 -17 4 -37 -30
-32 -26 4 -29 2 -23 -16 4 -12 8 -34 9 -51 1 -25 -2 -30 -20 -27 -31 4 -57
-39 -48 -83 7 -38 -2 -44 -36 -23 -28 18 -50 -4 -32 -32 17 -27 15 -38 -6 -44
-13 -4 -22 -22 -28 -53 -9 -46 -34 -72 -34 -35 0 10 -9 27 -21 38 l-21 19 8
-40 c4 -22 11 -50 15 -63 13 -35 11 -44 -10 -40 -18 3 -61 -40 -74 -74 -3 -10
-14 -18 -23 -18 -14 0 -15 6 -9 43 5 23 7 71 6 106 -1 35 3 68 8 75 5 6 11 43
14 81 7 92 20 165 36 193 7 13 15 55 17 95 3 40 10 83 15 97 5 14 13 61 19
105 6 44 12 91 14 105 25 180 45 361 41 372 -3 8 -1 27 5 42 5 15 13 134 16
264 3 130 9 248 14 262 6 14 12 63 15 110 2 47 9 105 14 130 5 25 7 49 4 53
-3 5 -7 129 -9 275 -3 161 -9 278 -15 295 -8 17 -9 47 -3 85 12 85 7 506 -7
595 -10 60 -10 100 -1 176 11 91 10 104 -8 157 -11 32 -22 93 -24 136 -2 42
-9 92 -15 110 -10 29 -24 112 -50 289 -5 30 -13 65 -20 77 -6 11 -11 42 -11
69 0 28 -7 58 -15 71 -9 12 -15 27 -14 34 5 23 -13 101 -33 148 -11 25 -23 63
-28 85 -19 89 -32 131 -46 152 -8 12 -14 33 -14 47 0 13 -7 37 -15 52 -8 16
-15 40 -15 53 0 14 -7 32 -15 41 -8 9 -20 43 -26 76 -5 32 -23 91 -39 130 -15
40 -38 108 -49 153 -27 103 -114 293 -281 616 -34 66 -77 162 -95 213 -18 51
-43 107 -54 125 -12 17 -28 48 -37 67 -9 19 -24 47 -34 61 -10 14 -27 47 -37
75 -11 27 -46 87 -78 134 -41 60 -61 99 -66 131 -7 42 -43 105 -99 174 -9 11
-25 40 -35 65 -11 25 -29 61 -41 80 -12 20 -39 76 -60 125 -39 91 -78 155
-124 204 -127 135 -224 244 -246 276 -31 46 -84 110 -138 168 -21 23 -77 86
-124 140 -46 54 -106 115 -133 135 -27 21 -117 92 -200 160 -83 67 -163 129
-178 137 -15 7 -34 21 -41 30 -12 14 -12 18 1 26 19 12 16 13 54 -17z m-4735
-428 c0 -8 -4 -17 -9 -21 -12 -7 -24 12 -16 25 9 15 25 12 25 -4z m-60 -94 c0
-4 -20 -29 -45 -56 -25 -27 -45 -55 -45 -61 0 -6 -19 -32 -41 -56 -23 -24 -68
-77 -101 -118 -32 -41 -87 -104 -121 -141 -101 -106 -216 -277 -251 -375 -10
-27 -31 -71 -47 -98 -16 -26 -29 -52 -29 -58 0 -6 -11 -25 -25 -43 -13 -18
-38 -64 -54 -102 -38 -91 -69 -156 -136 -284 -30 -58 -55 -110 -55 -117 0 -7
-20 -52 -44 -100 -24 -48 -47 -99 -51 -113 -14 -45 -76 -175 -95 -195 -10 -11
-21 -38 -24 -60 -8 -42 -18 -77 -48 -163 -10 -29 -18 -64 -18 -77 0 -13 -4
-27 -10 -30 -5 -3 -10 -15 -10 -27 0 -11 -6 -34 -13 -51 -21 -48 -35 -97 -42
-147 -4 -25 -13 -58 -19 -75 -7 -16 -20 -55 -29 -85 -9 -30 -24 -77 -33 -105
-26 -81 -55 -195 -69 -270 -7 -38 -24 -101 -38 -140 -14 -38 -31 -104 -37
-145 -7 -41 -16 -95 -21 -120 -5 -25 -14 -83 -20 -130 -6 -47 -15 -103 -20
-125 -6 -22 -15 -69 -20 -105 -14 -100 -18 -126 -24 -141 -3 -8 -7 -48 -10
-89 -3 -41 -9 -106 -14 -145 -25 -196 -42 -366 -41 -415 0 -30 -3 -176 -7
-325 -6 -271 -6 -335 1 -540 2 -60 0 -121 -5 -134 -6 -15 -6 -36 0 -55 5 -17
12 -119 15 -226 9 -270 39 -606 60 -660 12 -32 13 -146 1 -170 -7 -14 -13 -64
-14 -111 -1 -74 1 -89 20 -113 18 -22 22 -45 26 -119 7 -144 3 -237 -12 -298
-8 -31 -15 -68 -15 -82 0 -14 -7 -32 -15 -41 -8 -8 -15 -23 -15 -33 0 -10 -9
-32 -19 -49 -10 -17 -22 -44 -25 -61 -4 -18 -25 -48 -51 -71 l-43 -39 -5 26
c-3 14 -1 30 4 35 5 6 9 22 9 36 0 18 8 31 23 38 l22 11 -22 0 c-13 1 -23 -3
-23 -9 0 -5 -4 -10 -10 -10 -20 0 -9 23 30 67 22 25 40 49 40 54 0 4 13 29 29
56 33 53 47 152 24 160 -8 3 -13 -4 -13 -19 -1 -20 -23 -58 -92 -162 -19 -27
-68 -76 -78 -76 -16 0 -21 34 -5 42 23 14 18 23 -22 44 -21 10 -57 38 -81 60
l-42 41 6 57 c6 53 5 58 -15 63 -12 3 -28 18 -36 34 -8 15 -24 31 -36 34 -19
6 -20 8 -4 26 22 23 13 46 -21 59 -23 9 -25 14 -19 49 5 32 2 43 -20 69 -15
18 -33 32 -40 32 -23 0 -28 20 -10 46 14 21 14 31 4 62 -7 20 -20 50 -30 67
-11 16 -19 44 -19 62 0 47 -19 80 -57 103 -38 22 -43 45 -10 55 21 7 20 8 -8
14 -24 5 -31 12 -33 35 -3 27 -2 28 28 21 32 -7 32 -7 16 17 -9 13 -30 34 -47
47 -29 22 -31 27 -27 71 3 29 0 57 -8 71 -19 33 -18 63 1 55 10 -3 15 1 15 14
0 26 -27 50 -56 50 -22 0 -24 3 -18 28 10 39 14 44 29 32 8 -7 15 -7 19 -1 9
14 -10 22 -37 16 -33 -9 -48 13 -40 58 6 42 24 48 42 15 10 -20 11 -19 6 15
-5 32 -3 37 15 37 25 0 26 18 3 36 -27 20 -34 17 -27 -11 5 -22 3 -25 -20 -25
-19 0 -26 5 -26 20 0 15 -7 20 -25 20 -31 0 -31 7 -3 30 17 14 22 26 20 59 -3
38 -1 41 23 41 27 0 30 6 16 29 -5 8 -16 11 -24 8 -8 -3 -23 0 -33 8 -15 11
-16 15 -5 29 19 22 6 69 -17 62 -11 -3 -24 4 -35 20 -20 27 -15 44 13 44 12 0
25 13 35 34 16 33 15 36 -2 53 -11 11 -27 23 -37 26 -28 11 -7 29 25 22 27 -6
29 -5 29 25 0 29 -3 32 -24 28 -22 -4 -23 -2 -16 22 4 15 19 39 34 53 30 30
32 42 11 51 -9 3 -21 19 -26 35 -8 22 -19 31 -47 38 -44 10 -52 44 -13 53 19
4 24 12 26 43 1 29 -3 40 -17 48 -14 8 -18 19 -16 46 3 31 8 38 33 46 17 5 41
8 54 8 30 -1 26 3 -29 32 -46 24 -57 44 -59 105 -1 22 4 32 14 32 8 0 15 -4
15 -10 0 -5 7 -10 15 -10 19 0 19 34 0 50 -20 17 -19 25 8 38 l22 11 -22 0
c-15 1 -23 8 -25 24 -2 14 -11 23 -26 25 -20 3 -22 7 -17 35 4 18 15 39 25 47
9 8 20 23 23 33 4 9 13 17 22 17 23 0 18 34 -10 60 -14 13 -30 41 -37 62 -6
21 -15 38 -20 38 -4 0 -8 5 -8 12 0 6 13 -1 29 -16 52 -50 68 -13 25 59 -14
25 -23 49 -19 55 9 14 52 13 58 -2 2 -8 8 -9 13 -4 5 5 4 11 -3 13 -18 7 -16
43 4 65 16 18 16 19 -5 25 -25 6 -31 43 -7 43 17 0 39 46 29 62 -4 5 -19 8
-35 6 -24 -4 -27 -2 -17 11 6 9 25 28 42 42 l29 26 -21 35 -21 34 22 23 22 22
-24 20 c-19 16 -22 22 -12 32 10 9 15 8 25 -5 7 -10 21 -18 30 -18 24 0 21 47
-4 60 -11 6 -20 20 -20 30 0 11 -9 37 -20 58 -12 21 -16 38 -10 40 13 5 70
-49 70 -67 0 -8 6 -11 16 -7 9 3 20 6 25 6 20 0 8 31 -16 40 -13 5 -31 23 -40
40 -15 28 -14 30 4 30 10 0 24 -7 31 -15 7 -8 16 -15 21 -15 20 0 7 25 -28 56
-33 30 -35 34 -18 40 11 5 20 3 23 -4 4 -14 52 -16 52 -3 0 6 -5 13 -10 16 -5
3 -10 15 -10 26 0 11 -7 22 -15 24 -8 3 -22 7 -30 10 -12 4 -12 9 3 36 9 18
24 40 33 49 9 10 19 24 21 31 4 11 8 12 20 1 13 -10 17 -10 21 2 4 9 -6 27
-23 43 -17 15 -30 36 -30 47 0 10 -8 25 -18 32 -16 13 -16 13 3 13 11 1 31 -8
45 -19 14 -11 31 -20 38 -20 17 0 15 25 -3 40 -10 9 -13 24 -8 55 3 26 1 45
-6 49 -19 12 -12 26 12 26 13 0 28 5 35 12 9 9 15 9 24 0 16 -16 28 -15 28 3
0 8 -13 24 -30 36 -28 21 -32 46 -5 35 8 -3 19 2 26 10 10 12 8 18 -9 30 -31
22 -29 52 4 56 38 4 53 32 31 55 -22 25 -21 148 2 180 21 29 46 32 31 3 -17
-33 4 -62 43 -58 28 3 32 6 29 28 -2 14 -10 32 -18 41 -8 8 -14 23 -14 31 0 9
-7 18 -15 22 -28 10 -15 26 21 26 34 0 36 2 30 26 -9 36 2 64 24 64 11 0 24 9
30 20 6 11 20 20 30 20 23 0 28 38 8 58 -10 10 -7 16 10 28 30 21 28 37 -8 51
-34 13 -40 33 -11 33 11 0 26 9 34 20 9 13 20 17 36 13 21 -5 22 -10 17 -45
-5 -30 -3 -39 6 -35 21 7 14 77 -10 96 -23 18 -36 81 -16 81 6 0 17 -7 24 -15
20 -24 32 -6 25 36 -4 25 -3 39 4 39 6 0 11 9 11 19 0 27 14 33 36 16 27 -20
44 -18 44 4 0 13 -11 24 -35 32 -50 18 -38 33 28 37 69 4 75 21 16 50 l-40 20
23 21 23 22 18 -26 c10 -14 23 -25 29 -25 5 0 25 -12 44 -26 54 -42 41 -7 -21
53 -30 29 -55 62 -55 72 0 32 32 51 73 44 40 -6 46 2 26 40 -10 18 -8 23 10
35 13 9 21 25 21 43 0 32 6 35 34 14 32 -25 38 -18 31 35 -7 54 -7 55 58 50
19 -1 27 3 27 14 0 9 8 16 20 16 11 0 20 5 20 10 0 6 -4 10 -10 10 -11 0 -13
30 -4 54 3 9 14 16 24 16 27 0 36 21 17 35 -23 16 -21 32 3 45 16 8 20 21 20
58 1 39 3 44 11 28 6 -10 19 -26 29 -36 10 -10 19 -23 22 -31 5 -14 38 -5 38
11 0 5 -9 19 -20 30 -11 11 -20 24 -20 29 0 5 9 11 20 14 12 3 20 14 20 26 0
11 11 32 25 47 14 15 25 31 25 37 0 5 7 6 16 3 19 -7 44 10 44 30 0 8 -7 14
-15 14 -9 0 -15 9 -15 22 0 20 1 20 18 5 28 -25 62 2 62 49 0 42 22 54 52 28
20 -19 21 -19 14 2 -5 18 -2 23 19 28 17 4 30 17 36 36 12 33 31 43 79 41 31
-1 33 0 18 12 -10 8 -18 26 -18 40 0 14 -5 27 -12 29 -6 2 -8 10 -4 17 6 9 11
9 21 1 27 -23 49 19 25 48 -7 9 -7 9 2 2 22 -18 46 -10 77 25 27 31 33 34 51
23 17 -11 22 -10 30 2 7 11 4 19 -10 29 -27 19 -25 29 8 33 23 3 27 8 30 41 3
39 32 55 32 17 0 -10 9 -24 20 -30 16 -9 22 -6 36 16 14 21 15 30 6 45 -21 32
-5 50 39 43 24 -4 39 -3 39 4 0 6 -4 12 -9 14 -4 2 -12 14 -16 27 -7 23 -6 24
33 19 49 -7 86 14 79 43 -3 11 -1 22 4 25 17 10 9 34 -11 34 -11 0 -20 5 -20
10 0 12 27 13 34 1 3 -5 18 -12 33 -16 15 -3 31 -11 34 -17 4 -6 12 -7 18 -4
8 5 7 14 -4 29 -33 47 -12 78 34 51 25 -15 32 -15 45 -5 9 8 16 22 16 32 0 15
7 19 36 19 30 0 34 3 29 19 -4 14 0 23 15 31 11 6 20 17 20 25 0 8 9 15 20 15
11 0 23 7 26 15 8 19 33 19 54 0 15 -14 20 -12 48 15 31 29 52 38 52 22z
m2025 -72 c15 -6 16 -9 4 -9 -9 -1 -24 -10 -34 -21 -10 -11 -26 -20 -36 -20
-10 0 -33 -13 -51 -29 -66 -56 -101 -65 -96 -24 2 21 16 37 53 61 79 53 114
62 160 42z m423 -43 c26 -8 68 -20 94 -27 44 -12 67 -25 108 -63 17 -17 59
-25 190 -36 116 -11 248 1 333 30 34 12 98 30 142 40 44 11 90 25 103 31 25
13 52 3 60 -22 3 -9 -4 -11 -29 -8 -33 5 -92 -13 -104 -32 -3 -5 -13 -10 -22
-10 -9 0 -24 -7 -34 -16 -29 -26 -158 -58 -231 -58 -38 0 -68 -3 -68 -6 1 -22
68 -71 124 -90 47 -15 47 -46 1 -43 -17 1 -68 4 -115 6 -47 2 -95 9 -108 16
-13 7 -48 21 -79 31 -60 20 -67 15 -61 -36 2 -22 10 -29 48 -40 25 -8 83 -16
130 -19 116 -8 204 -21 230 -35 12 -6 60 -12 108 -12 57 0 94 -5 107 -14 25
-18 64 -18 108 1 48 20 64 19 77 -6 9 -15 8 -24 -2 -36 -11 -13 -9 -18 12 -32
31 -21 99 -39 180 -50 82 -10 150 -43 150 -72 0 -15 -5 -19 -16 -15 -9 3 -48
9 -87 13 -42 4 -110 21 -167 41 -99 37 -119 39 -497 56 -40 2 -81 7 -90 11
-10 3 -61 13 -113 20 -166 24 -234 36 -294 56 -37 12 -64 15 -74 10 -8 -5 -32
-6 -53 -4 -22 3 -54 -1 -76 -9 -31 -13 -80 -15 -253 -13 -208 3 -218 4 -303
33 -49 16 -96 37 -104 45 -14 14 -13 17 16 35 32 19 33 19 103 1 91 -24 110
-24 161 2 23 12 65 23 92 25 158 12 175 12 198 -6 50 -39 111 -34 170 16 33
28 61 79 51 95 -9 15 -76 10 -95 -7 -12 -10 -25 -14 -36 -9 -16 6 -16 8 5 18
23 10 29 31 12 42 -5 3 -28 1 -49 -6 -29 -9 -44 -9 -53 -1 -8 6 -37 14 -65 18
-46 6 -55 4 -86 -21 -36 -27 -96 -33 -104 -9 -6 18 68 104 91 104 11 0 28 4
35 9 12 8 10 12 -11 21 -21 10 -33 9 -72 -9 -61 -27 -100 -14 -60 20 52 44
266 59 372 26z m1222 -61 c64 -16 132 -57 118 -71 -4 -4 -20 2 -36 14 -22 15
-38 19 -60 15 -23 -5 -35 -1 -52 16 -12 12 -40 25 -61 27 -21 3 -39 10 -39 15
0 12 37 7 130 -16z m-2020 -60 c-8 -8 -42 -24 -75 -36 -33 -12 -78 -29 -99
-37 -21 -7 -46 -12 -55 -10 -10 3 -8 5 6 6 12 0 27 10 33 21 6 11 19 20 29 20
10 0 24 7 31 15 7 8 25 15 41 15 15 0 31 5 34 10 3 6 20 10 38 10 27 0 29 -2
17 -14z m1012 -404 c24 -11 51 -23 61 -26 9 -3 17 -15 17 -26 0 -11 -8 -23
-17 -27 -10 -3 -26 -14 -36 -25 -17 -17 -50 -23 -105 -20 -27 1 -119 59 -126
79 -9 21 1 33 48 54 49 22 97 19 158 -9z m-872 -14 c25 -13 45 -29 45 -36 0
-17 -113 -111 -143 -119 -42 -10 -156 71 -150 107 2 8 18 23 37 32 19 9 39 22
44 27 20 20 119 13 167 -11z m1725 -87 c72 -22 115 -42 115 -52 0 -15 -52 -49
-84 -54 -57 -11 -215 72 -216 113 0 19 115 15 185 -7z m-2556 -65 c38 -49 40
-56 31 -82 -14 -36 -96 -122 -129 -135 -37 -15 -86 7 -125 54 -52 65 -53 79
-9 128 55 60 101 88 149 88 39 1 44 -3 83 -53z m3226 -55 c27 -11 75 -26 105
-35 56 -16 115 -59 105 -77 -9 -13 -85 -11 -126 3 -42 14 -145 84 -152 102 -5
14 0 26 12 26 3 0 28 -9 56 -19z m2780 -81 c11 -17 -5 -32 -21 -19 -7 6 -11
15 -8 20 7 12 21 11 29 -1z m-4349 -236 c53 -35 93 -84 94 -114 0 -30 -81
-109 -113 -111 -68 -4 -117 14 -170 61 -43 37 -46 63 -14 111 24 37 96 78 138
79 14 0 44 -12 65 -26z m847 -48 c50 -17 125 -80 133 -112 9 -35 -13 -81 -53
-111 -72 -55 -181 -24 -238 68 -33 51 -28 66 38 124 56 49 64 51 120 31z
m-1695 -34 c36 -27 62 -70 62 -100 0 -24 -114 -138 -146 -146 -47 -12 -154 67
-154 113 0 37 89 149 130 164 25 9 73 -4 108 -31z m5432 7 c0 -24 -23 -21 -28
4 -2 10 3 17 12 17 10 0 16 -9 16 -21z m30 -60 c0 -17 -4 -28 -10 -24 -5 3
-10 17 -10 31 0 13 5 24 10 24 6 0 10 -14 10 -31z m-2932 -99 c76 -40 148
-124 137 -159 -3 -11 -24 -36 -45 -55 -55 -50 -87 -48 -147 7 -100 89 -113
118 -77 170 41 61 71 70 132 37z m-3325 -77 c36 -25 38 -29 32 -62 -4 -19 -16
-46 -27 -60 -35 -46 -99 -91 -129 -91 -36 0 -99 54 -99 85 0 40 127 153 174
155 6 0 27 -12 49 -27z m4024 -210 c76 -82 87 -117 53 -182 -33 -66 -68 -63
-137 11 -47 52 -57 77 -49 123 7 35 55 85 83 85 8 0 31 -17 50 -37z m-4698
-70 c31 -38 35 -66 16 -104 -22 -44 -105 -129 -125 -129 -9 0 -29 13 -44 29
-23 24 -27 35 -21 60 11 51 110 170 142 171 6 0 21 -12 32 -27z m2280 -68 c73
-53 81 -92 29 -141 -48 -45 -78 -61 -125 -69 -39 -6 -45 -4 -88 36 -60 55 -69
72 -53 101 22 40 72 90 103 104 41 19 75 11 134 -31z m840 -16 c43 -9 58 -19
96 -62 25 -28 45 -61 45 -73 0 -23 -100 -124 -122 -124 -30 1 -100 42 -143 84
-60 61 -61 89 0 145 49 45 52 46 124 30z m-1752 -29 c18 -10 44 -37 58 -59 25
-37 26 -41 12 -68 -28 -52 -118 -123 -157 -123 -30 0 -130 78 -130 102 0 38
39 83 123 141 48 32 53 33 94 7z m2603 -161 c45 -27 90 -69 90 -85 0 -6 7 -17
15 -24 42 -35 -18 -149 -80 -150 -11 0 -42 13 -70 29 -103 60 -138 129 -94
185 22 29 76 66 94 66 6 0 26 -10 45 -21z m-3379 -59 c23 -13 49 -61 49 -90 0
-37 -125 -150 -167 -150 -27 0 -83 60 -83 89 0 33 32 78 89 124 47 38 77 45
112 27z m2089 -89 c58 -5 112 -12 120 -15 8 -3 38 -8 65 -10 152 -16 351 -44
393 -57 18 -6 67 -14 110 -19 108 -13 153 -24 185 -44 15 -10 36 -16 47 -13
34 9 370 -95 404 -125 6 -4 23 -8 38 -8 16 0 36 -4 46 -10 9 -5 49 -21 87 -35
88 -33 184 -75 300 -132 103 -51 177 -117 193 -171 6 -20 13 -103 17 -183 5
-131 4 -150 -14 -191 -42 -98 -126 -161 -185 -138 -35 13 -36 13 -36 -3 0 -8
18 -28 41 -47 36 -29 43 -31 64 -20 18 10 30 9 61 -1 45 -16 78 -48 203 -193
59 -68 106 -113 128 -122 55 -23 60 -55 22 -133 -18 -36 -49 -82 -68 -102 -20
-19 -58 -60 -85 -90 -96 -106 -127 -112 -219 -41 -122 93 -234 153 -347 187
-30 9 -75 22 -100 29 -102 31 -130 36 -240 47 -171 17 -402 26 -425 15 -10 -5
-40 -15 -65 -22 -99 -27 -369 -149 -370 -166 0 -11 60 -20 73 -11 7 6 41 20
77 33 36 13 72 28 80 34 15 11 47 27 123 60 21 9 53 16 72 16 18 0 46 5 61 10
20 8 38 6 78 -8 39 -14 64 -16 106 -11 108 14 213 10 288 -11 39 -11 83 -20
97 -20 14 0 33 -4 43 -8 62 -30 94 -50 93 -58 -3 -23 -244 -1 -310 28 -50 22
-111 21 -176 -5 -22 -9 -66 -16 -98 -17 -31 0 -65 -4 -75 -9 -9 -6 -48 -24
-87 -41 -98 -43 -125 -59 -166 -94 -20 -17 -57 -48 -83 -69 -25 -21 -44 -43
-40 -49 9 -15 70 -1 142 33 34 16 65 29 68 29 4 0 27 17 52 37 77 63 154 112
168 106 18 -7 18 -37 -1 -73 -9 -16 -18 -49 -21 -73 -13 -95 83 -216 204 -255
83 -27 96 -27 168 0 76 29 161 108 176 163 19 75 20 111 4 149 -9 21 -16 45
-16 52 0 19 64 18 80 -1 7 -8 18 -15 24 -15 23 0 172 -156 205 -214 l33 -58
-17 -52 c-9 -28 -24 -62 -33 -76 -31 -47 -63 -105 -110 -200 -26 -52 -73 -139
-105 -192 -31 -53 -57 -99 -57 -102 0 -3 -11 -22 -25 -42 -14 -20 -25 -43 -25
-51 0 -8 -6 -29 -14 -46 -7 -18 -24 -57 -36 -87 -13 -30 -36 -68 -51 -84 l-28
-29 -193 97 c-106 53 -202 102 -213 109 -41 25 -227 133 -253 147 -15 8 -56
31 -92 51 -36 21 -99 55 -140 77 -87 45 -137 75 -200 117 -83 56 -264 116
-390 130 -30 4 -80 11 -111 17 -54 10 -79 8 -279 -22 -30 -4 -77 -14 -105 -22
-50 -15 -77 -27 -233 -99 -46 -22 -85 -39 -88 -39 -5 0 -52 -21 -161 -72 -28
-13 -53 -17 -71 -13 -34 7 -108 -32 -225 -121 -40 -29 -88 -61 -107 -71 -19
-10 -56 -30 -81 -45 -25 -16 -52 -28 -59 -28 -11 0 -128 -53 -230 -105 -14 -7
-50 -19 -80 -28 -134 -39 -163 -48 -295 -97 -77 -29 -160 -58 -185 -64 -25 -6
-55 -17 -67 -24 -12 -6 -31 -12 -42 -12 -11 0 -22 -4 -25 -9 -3 -5 -23 -12
-43 -16 -21 -4 -43 -11 -49 -16 -12 -9 -199 -69 -218 -69 -6 0 -23 -7 -38 -14
-15 -8 -29 -12 -32 -8 -8 15 -16 127 -21 307 -4 146 -10 210 -26 275 -21 85
-53 165 -70 176 -5 3 -9 14 -9 24 0 11 -11 43 -24 72 -30 66 -49 124 -52 163
-4 47 16 268 27 294 19 47 49 228 49 298 0 40 7 93 16 120 29 85 168 303 237
373 73 73 130 120 145 120 13 0 42 40 42 57 0 18 -35 16 -71 -2 -33 -18 -48
-13 -113 38 -43 34 -63 75 -76 151 -16 98 27 188 135 282 54 46 76 61 195 129
25 14 68 39 95 55 28 16 75 42 105 57 30 14 64 34 75 44 11 9 44 24 74 33 30
9 69 25 88 36 19 11 40 20 47 20 7 0 25 9 39 20 14 11 31 20 39 20 8 0 31 9
53 20 22 11 49 20 61 20 12 0 41 7 64 15 23 8 55 15 70 15 15 0 44 7 64 15 20
9 47 13 60 9 13 -3 46 2 72 11 61 21 139 33 269 39 55 3 123 10 150 16 58 12
71 14 225 34 63 9 174 19 245 24 167 10 579 6 715 -7z m1996 -213 c49 -52 74
-91 74 -116 0 -26 -44 -72 -69 -72 -22 0 -121 93 -121 114 0 8 -9 24 -19 37
-19 23 -19 24 0 60 10 21 24 39 31 42 20 7 59 -18 104 -65z m-4706 -60 c31
-51 25 -85 -23 -148 -54 -69 -87 -77 -117 -28 -23 38 -25 66 -5 92 44 57 100
116 112 116 7 0 22 -15 33 -32z m-886 -271 c-2 -62 -104 -192 -104 -133 0 7 9
25 20 39 11 14 20 30 20 36 0 6 4 19 9 29 6 9 12 30 16 45 4 20 11 27 23 25
13 -3 17 -13 16 -41z m6031 17 c14 -15 25 -35 25 -45 0 -10 7 -34 16 -53 19
-39 13 -66 -13 -66 -23 0 -103 98 -103 125 0 23 26 65 41 65 5 0 21 -12 34
-26z m-5557 -134 c5 -48 -14 -107 -38 -120 -11 -6 -20 -20 -20 -31 0 -25 -25
-35 -45 -19 -28 23 -18 87 22 151 28 46 41 59 57 57 16 -2 22 -12 24 -38z
m-510 -148 c-5 -26 -13 -66 -18 -90 -6 -23 -10 -64 -10 -90 0 -26 -7 -72 -15
-102 -8 -30 -15 -82 -15 -115 0 -33 -7 -71 -15 -85 -9 -15 -14 -53 -15 -97 0
-84 -6 -103 -30 -103 -15 0 -18 13 -22 98 -3 53 -1 102 3 107 8 11 13 179 7
225 -2 14 -12 40 -21 58 -16 29 -16 33 -2 39 9 3 21 1 28 -6 18 -18 26 -13 33
24 3 19 10 38 15 40 4 3 11 26 15 52 9 60 41 118 59 103 9 -7 10 -23 3 -58z
m6807 -92 c27 -39 28 -42 14 -82 -7 -23 -24 -54 -36 -68 -27 -31 -49 -21 -77
34 -18 36 -18 38 4 89 35 81 54 86 95 27z m-6505 -217 c0 -40 -5 -58 -22 -78
l-23 -26 -2 56 c-3 65 21 140 37 115 5 -8 10 -38 10 -67z m5791 -24 c12 -42
10 -104 -4 -124 -13 -17 -15 -17 -30 6 -20 28 -21 57 -5 111 12 42 29 45 39 7z
m-5667 -142 c60 -60 69 -81 56 -122 -14 -42 -60 -71 -89 -56 -39 21 -81 81
-81 115 0 34 45 96 69 96 7 0 27 -15 45 -33z m-1077 -79 c19 -15 7 -26 -22
-20 -14 2 -30 14 -36 25 -10 18 -9 19 17 13 16 -4 34 -12 41 -18z m6643 -49
c0 -11 -4 -17 -10 -14 -5 3 -10 13 -10 21 0 8 5 14 10 14 6 0 10 -9 10 -21z
m463 -38 c44 -49 67 -92 67 -126 0 -31 -43 -77 -64 -69 -32 12 -84 161 -72
207 9 37 28 34 69 -12z m-6173 -64 c5 -26 4 -42 -7 -57 -21 -29 -33 -10 -33
51 0 72 24 76 40 6z m-422 -9 c14 -14 17 -144 3 -152 -4 -3 -11 -19 -14 -35
-8 -40 -63 -101 -91 -101 -28 0 -46 18 -46 46 0 25 15 39 52 48 40 9 58 52 58
136 0 71 10 86 38 58z m-1770 -377 c11 -7 10 -10 -3 -15 -19 -7 -35 0 -35 15
0 11 20 12 38 0z m6750 -73 c18 -18 14 -35 -10 -41 -26 -7 -58 8 -58 28 0 24
48 33 68 13z m1092 -142 c0 -7 -11 -28 -25 -47 -13 -19 -30 -45 -36 -59 -7
-14 -29 -63 -50 -108 -22 -46 -39 -92 -39 -103 0 -10 -21 -58 -46 -106 -26
-48 -55 -106 -66 -128 -11 -22 -51 -92 -90 -155 -38 -63 -73 -122 -77 -130 -4
-8 -13 -24 -19 -35 -47 -88 -102 -202 -102 -213 0 -7 -12 -41 -26 -75 -33 -77
-40 -106 -60 -232 -25 -170 -40 -454 -26 -504 20 -69 43 -337 47 -531 3 -179
8 -229 35 -360 17 -80 32 -303 26 -372 -8 -88 -26 -178 -60 -293 -30 -104 -54
-202 -61 -244 -5 -33 -19 -56 -51 -91 -47 -51 -74 -103 -74 -147 0 -15 -12
-40 -25 -55 -29 -33 -35 -35 -35 -8 0 11 -3 20 -8 20 -13 0 -52 -30 -52 -41 0
-5 -14 -38 -31 -75 -29 -60 -30 -67 -15 -83 20 -22 21 -60 2 -75 -16 -13 -118
-203 -185 -346 -12 -25 -44 -85 -71 -135 -28 -49 -54 -100 -60 -113 -5 -12
-18 -35 -28 -50 -38 -55 -57 -88 -68 -118 -21 -61 -104 -172 -166 -222 -34
-28 -107 -74 -162 -103 -55 -28 -116 -63 -135 -77 -35 -27 -93 -52 -122 -52
-21 0 -214 -63 -254 -83 -16 -8 -68 -17 -115 -21 -84 -6 -140 -19 -212 -50
-47 -20 -100 -20 -208 -1 -47 9 -107 15 -135 14 -82 -2 -287 36 -429 80 -37
11 -75 21 -83 21 -32 0 -301 135 -368 184 -38 28 -104 72 -145 96 -97 58 -271
231 -365 364 -39 54 -81 111 -95 125 -60 64 -144 207 -154 266 -4 22 -15 58
-25 80 -10 22 -26 63 -36 90 -10 28 -33 81 -52 118 -38 76 -58 150 -68 246 -5
43 -13 68 -26 79 -10 9 -19 23 -19 32 0 8 -14 35 -30 59 -17 25 -33 56 -36 70
-2 15 -11 39 -19 54 -8 16 -15 40 -15 53 0 14 -13 51 -30 84 -16 33 -30 64
-30 70 0 6 -16 34 -35 63 -19 28 -37 66 -41 82 -3 17 -24 50 -46 75 -53 60
-78 111 -78 158 0 102 -107 305 -222 423 -21 22 -58 97 -58 120 0 11 -7 33
-15 49 -8 16 -21 57 -29 90 -8 34 -21 71 -29 83 -7 12 -28 65 -45 118 -48 144
-45 224 9 319 5 8 13 25 19 38 5 12 16 25 25 28 39 15 114 201 119 296 1 35
-18 42 -22 8 -2 -14 -10 -29 -18 -33 -8 -4 -14 -13 -14 -18 0 -28 -92 -211
-128 -255 -43 -52 -63 -41 -115 59 -41 81 -52 118 -63 229 -6 49 -3 63 20 104
16 29 30 75 36 118 11 79 18 99 91 261 22 48 23 49 27 21 5 -42 -2 -119 -22
-215 -10 -46 -15 -95 -11 -109 3 -13 2 -29 -3 -35 -5 -7 -19 -39 -30 -72 -17
-51 -19 -71 -12 -130 14 -110 46 -183 71 -158 8 8 8 30 0 81 -19 120 -15 187
14 232 14 22 33 40 42 40 9 0 24 6 32 14 17 14 110 46 133 46 8 0 20 6 26 13
7 6 32 13 56 13 48 2 175 30 224 50 18 8 42 14 53 14 11 0 30 5 42 12 12 6 35
15 52 19 16 4 44 12 60 17 17 6 57 18 90 27 75 22 154 51 225 83 30 13 84 33
120 43 72 21 161 55 260 101 36 17 79 36 95 43 17 8 74 34 127 59 53 25 103
46 111 46 8 0 33 14 55 30 23 17 45 30 49 30 5 0 76 33 158 74 379 189 508
243 715 298 82 22 261 6 413 -35 51 -14 173 -66 231 -99 11 -5 40 -22 64 -35
25 -14 65 -38 90 -54 25 -16 54 -29 63 -29 10 0 21 -5 24 -10 3 -6 23 -18 43
-29 20 -10 71 -37 112 -61 82 -47 128 -71 178 -95 66 -31 98 -47 132 -66 68
-38 296 -151 355 -176 73 -31 123 -67 135 -99 6 -15 4 -39 -5 -71 -13 -47 -38
-223 -36 -253 3 -39 -1 -84 -8 -99 -10 -19 -3 -79 10 -87 5 -3 9 -21 9 -40 0
-19 11 -56 24 -83 13 -27 27 -67 31 -87 3 -21 13 -47 21 -58 8 -11 14 -31 14
-44 0 -22 14 -74 45 -162 30 -86 45 -136 45 -151 0 -9 11 -41 24 -70 13 -30
29 -81 36 -114 8 -33 21 -71 30 -85 10 -14 20 -47 24 -75 14 -99 26 -107 45
-29 13 52 12 60 -49 333 -10 42 -10 61 0 92 12 34 11 41 -3 57 -10 10 -17 30
-17 44 0 14 -7 50 -16 79 -8 30 -23 79 -31 109 -9 30 -22 73 -30 95 -7 22 -17
60 -23 85 -5 25 -19 81 -31 125 -19 72 -21 97 -16 241 6 145 9 168 36 240 16
43 35 98 42 122 7 23 18 47 26 53 7 6 13 20 13 31 0 10 11 40 24 66 13 26 27
58 31 71 4 14 20 42 36 64 16 22 29 44 29 50 0 13 90 139 111 154 9 7 31 35
49 63 18 27 36 50 40 50 4 0 16 17 27 39 30 60 59 95 188 223 130 130 205 183
205 144z m414 -23 c52 -34 86 -64 86 -75 0 -21 -52 -5 -92 28 -83 70 -79 104
6 47z m1126 -114 c3 -63 11 -124 18 -136 16 -29 16 -86 0 -81 -25 8 -71 189
-71 275 -1 34 19 66 37 60 7 -2 13 -48 16 -118z m1470 -135 c0 -8 -7 -14 -15
-14 -15 0 -21 21 -9 33 10 9 24 -2 24 -19z m-8550 -46 c0 -11 6 -34 14 -51 35
-80 38 -95 26 -117 -17 -32 1 -73 59 -128 43 -40 50 -51 45 -74 -4 -16 -11
-28 -16 -28 -17 0 -97 92 -118 136 -11 22 -20 50 -20 62 0 11 -6 46 -14 76
-13 49 -13 103 0 144 6 19 24 4 24 -20z m5635 -10 c-4 -13 -11 -84 -15 -158
-4 -76 -13 -147 -20 -160 -51 -99 -155 -260 -170 -265 -27 -9 -110 -110 -110
-134 0 -25 14 -27 32 -5 41 52 92 94 101 85 11 -11 -29 -81 -98 -171 -22 -30
-51 -72 -64 -92 -28 -47 -68 -54 -56 -10 10 36 18 192 10 192 -21 0 -55 -37
-61 -66 -3 -19 -10 -37 -15 -39 -26 -17 -86 -192 -75 -220 2 -7 -2 -25 -9 -41
-26 -59 -52 -177 -73 -329 -5 -35 -12 -50 -22 -50 -12 0 -16 23 -18 130 -2 72
1 153 7 180 5 28 14 84 21 125 6 41 21 97 35 125 13 28 27 64 31 80 3 17 30
68 58 114 28 46 62 104 75 130 88 170 141 251 167 251 16 0 3 -59 -20 -91 -9
-13 -16 -31 -16 -41 0 -23 29 -23 37 0 4 9 18 35 32 57 72 113 140 234 148
264 3 14 12 35 19 46 8 11 14 28 14 38 0 22 37 77 52 77 6 0 7 -9 3 -22z
m-6235 -59 c0 -17 -108 -125 -116 -116 -10 10 10 45 51 90 33 36 65 49 65 26z
m6080 -22 c0 -12 -42 -86 -60 -104 -21 -23 -40 -30 -40 -14 0 10 46 80 69 103
14 15 31 23 31 15z m-6590 -26 c0 -19 -69 -89 -110 -111 -17 -9 -29 -9 -46 -1
-36 16 -29 36 20 55 25 10 61 30 82 47 43 34 54 36 54 10z m6995 -174 c1 -90
6 -170 10 -177 4 -7 12 -101 16 -209 5 -108 12 -229 15 -269 4 -46 2 -82 -5
-95 -6 -12 -12 -40 -13 -62 l-3 -40 -94 2 c-67 2 -99 7 -111 18 -9 8 -22 15
-29 15 -6 0 -35 12 -63 26 -47 24 -55 25 -110 15 -32 -5 -73 -20 -90 -32 -36
-26 -88 -104 -88 -133 0 -16 13 -8 60 39 60 59 61 60 118 60 36 0 90 -11 147
-30 69 -23 109 -30 170 -30 96 0 110 -6 135 -55 17 -33 17 -40 4 -65 -8 -15
-14 -42 -14 -61 0 -18 -4 -35 -9 -38 -5 -3 -14 -27 -20 -53 -7 -26 -30 -85
-52 -131 -21 -46 -39 -94 -39 -107 0 -15 -10 -31 -24 -40 -23 -15 -27 -14 -78
14 -30 17 -60 31 -66 31 -22 0 -106 -67 -200 -159 -129 -125 -258 -221 -299
-221 -36 0 -53 31 -53 92 0 33 -5 68 -10 78 -15 28 -18 190 -5 225 7 17 13 77
14 135 1 58 8 127 16 154 8 27 15 61 15 75 0 14 9 42 19 61 11 19 29 54 40 78
11 23 24 42 29 42 18 0 91 80 132 144 23 39 66 97 94 130 28 34 59 81 70 106
10 25 22 52 27 60 5 8 17 31 27 50 9 19 29 53 44 74 16 21 28 45 28 53 0 17
49 83 61 83 14 0 -2 -90 -32 -175 -65 -185 -80 -220 -120 -287 -23 -38 -54
-77 -68 -86 -53 -34 -64 -52 -31 -52 34 0 104 46 125 83 11 19 35 61 53 93 18
33 42 88 53 124 11 36 26 76 33 90 8 14 24 61 36 105 13 44 27 85 31 90 11 15
29 88 39 156 7 50 25 136 37 178 2 10 7 11 14 4 7 -7 12 -76 14 -176z m-7100
-24 c-4 -10 -11 -35 -16 -56 -13 -53 -86 -197 -104 -204 -8 -3 -15 -14 -15
-24 0 -10 -4 -19 -9 -19 -12 0 -2 79 15 112 8 15 14 33 14 40 0 20 55 132 74
151 23 23 51 23 41 0z m1342 -235 c6 -7 13 -35 17 -63 31 -236 27 -282 -28
-333 -21 -18 -42 -32 -49 -29 -15 5 -10 78 8 133 10 29 12 65 7 130 -5 67 -3
99 8 132 16 45 22 49 37 30z m-2462 -6 c10 -7 35 -48 35 -57 0 -3 -6 -5 -13
-5 -7 0 -21 16 -30 35 -16 34 -13 43 8 27z m2240 -66 l24 -54 -23 -58 c-13
-33 -26 -67 -29 -76 -4 -10 -11 -18 -17 -18 -11 0 -15 242 -3 253 14 15 25 5
48 -47z m4754 -73 c-24 -43 -39 -55 -39 -29 0 21 54 99 59 85 2 -7 -7 -32 -20
-56z m1929 45 c15 -15 16 -38 1 -38 -12 0 -38 29 -39 43 0 11 25 8 38 -5z
m-281 -31 c-4 -24 3 -47 24 -87 33 -62 36 -99 13 -165 -9 -28 -13 -58 -9 -77
6 -23 4 -29 -6 -26 -17 6 -28 62 -28 146 -1 34 -7 78 -15 96 -34 81 -29 146
12 146 11 0 13 -8 9 -33z m77 -101 c-3 -9 -10 -16 -15 -16 -11 0 -12 43 -2 54
10 10 24 -20 17 -38z m288 -109 c13 -127 20 -171 33 -212 7 -22 18 -71 25
-110 6 -38 15 -83 20 -100 4 -16 16 -91 26 -166 14 -112 16 -152 7 -225 -6
-49 -8 -117 -5 -152 3 -49 0 -71 -14 -98 -10 -19 -22 -34 -26 -34 -13 0 -28
38 -28 72 0 18 -9 56 -20 85 -15 39 -18 68 -15 110 5 60 6 271 1 428 -1 56
-10 117 -23 160 -21 70 -40 324 -26 339 17 17 38 -29 45 -97z m-7122 43 c0
-14 8 -55 17 -92 13 -52 15 -70 6 -79 -21 -21 -40 7 -57 83 -20 90 -20 115 1
127 21 11 33 -2 33 -39z m-523 -80 c6 -30 8 -82 4 -115 l-6 -60 -16 30 c-22
40 -33 153 -19 189 14 37 24 25 37 -44z m-277 36 c0 -31 -10 -56 -21 -56 -10
0 -12 63 -2 73 13 14 23 6 23 -17z m9726 -41 c4 -14 4 -28 1 -31 -11 -11 -47
8 -47 25 0 39 37 43 46 6z m-9741 -86 c-8 -23 -8 -23 -15 -4 -9 26 -1 50 12
37 6 -6 7 -21 3 -33z m-3 -81 c-9 -9 -12 -7 -12 12 0 19 3 21 12 12 9 -9 9
-15 0 -24z m989 -330 c1 -220 7 -326 18 -346 6 -11 20 -50 32 -88 12 -38 32
-103 45 -144 30 -94 31 -115 5 -99 -17 11 -91 170 -91 196 0 6 -14 44 -31 84
-29 69 -32 84 -36 229 -7 209 9 309 50 310 4 0 7 -64 8 -142z m-976 -24 c0
-72 -5 -102 -25 -152 -13 -34 -28 -62 -32 -62 -5 0 -8 -14 -8 -31 0 -20 -4
-29 -12 -26 -20 7 -14 58 32 262 5 22 12 55 16 73 3 19 11 31 17 29 8 -2 12
-34 12 -93z m7858 -22 c10 -94 -10 -169 -34 -131 -5 8 -9 28 -9 45 0 42 21
144 30 144 4 0 10 -26 13 -58z m1707 -71 c0 -26 -16 -35 -24 -15 -10 25 -7 34
9 34 8 0 15 -9 15 -19z m-1190 -201 c11 -21 20 -52 20 -68 0 -16 5 -43 11 -61
6 -18 8 -35 4 -39 -10 -10 -44 35 -51 67 -3 14 -10 42 -16 62 -9 31 -5 79 7
79 3 0 14 -18 25 -40z m-1435 -252 c-4 -18 -16 -52 -26 -75 -11 -23 -19 -58
-19 -78 0 -50 -30 -103 -97 -172 -32 -32 -87 -91 -122 -132 -36 -40 -79 -79
-96 -87 -20 -8 -60 -12 -110 -10 -93 4 -98 9 -134 126 -12 41 -29 95 -37 120
-48 147 -62 277 -32 306 14 14 17 11 32 -33 10 -26 21 -69 26 -95 5 -27 12
-52 15 -58 14 -23 48 -158 65 -259 11 -70 21 -78 49 -40 33 44 41 80 50 205 6
101 10 116 35 149 23 30 33 36 58 33 48 -5 54 -25 34 -112 -10 -41 -24 -81
-32 -87 -8 -6 -14 -20 -14 -30 0 -10 -17 -53 -37 -94 -31 -62 -35 -77 -24 -84
23 -15 34 -4 85 82 27 45 56 93 65 107 9 14 23 39 31 56 36 74 211 294 234
294 4 0 4 -15 1 -32z m-7018 -95 c-3 -10 -5 -2 -5 17 0 19 2 27 5 18 2 -10 2
-26 0 -35z m7063 -147 c0 -14 -4 -27 -9 -30 -5 -4 -12 -24 -16 -45 -4 -22 -13
-45 -21 -52 -8 -6 -14 -21 -14 -32 0 -31 -40 -107 -56 -107 -31 0 -13 71 53
210 37 80 63 102 63 56z m2324 -59 c13 -21 4 -29 -27 -25 -21 3 -23 6 -16 26
10 26 27 25 43 -1z m-1153 -113 c3 -16 10 -38 17 -50 6 -11 7 -26 2 -34 -10
-17 -50 58 -50 95 0 36 23 27 31 -11z m-1384 -89 c-22 -54 -36 -75 -49 -75
-21 0 -23 19 -5 63 17 40 66 99 77 92 4 -3 -6 -39 -23 -80z m-5129 -317 c15
-19 81 -138 98 -178 8 -19 28 -62 44 -95 28 -59 67 -193 90 -310 15 -77 29
-109 101 -227 33 -54 64 -112 70 -130 5 -18 40 -94 77 -168 92 -188 97 -198
90 -205 -12 -13 -59 29 -80 69 -11 23 -31 55 -44 73 -13 17 -24 35 -24 39 0 4
-11 22 -24 39 -14 18 -28 45 -32 61 -4 16 -13 36 -20 44 -7 9 -24 40 -37 70
-14 30 -34 63 -44 73 -11 10 -27 34 -36 55 -8 20 -27 65 -41 99 -15 34 -31 88
-37 120 -5 32 -18 81 -29 108 -10 28 -22 73 -26 100 -3 28 -17 73 -29 100 -12
28 -26 61 -30 75 -4 14 -16 36 -26 49 -11 13 -19 31 -19 41 0 9 -7 31 -16 49
-22 45 -4 82 24 49z m4824 -313 c-3 -81 -14 -120 -43 -154 -28 -34 -35 -19
-42 97 -7 112 4 135 57 130 l31 -3 -3 -70z m1968 46 c0 -5 -15 -31 -33 -59
-19 -27 -37 -57 -40 -66 -4 -9 -11 -16 -17 -16 -16 0 -12 56 5 70 8 7 15 16
15 21 0 5 10 20 22 34 21 25 48 34 48 16z m-271 -240 c25 -49 21 -65 -9 -34
-18 20 -50 86 -50 105 0 17 36 -27 59 -71z m-7074 7 c-8 -63 -31 -132 -50
-148 -27 -22 -29 34 -5 97 12 32 26 68 31 81 16 42 30 24 24 -30z m5275 -243
c-10 -12 -10 -24 -2 -54 16 -53 -1 -99 -63 -164 -28 -28 -72 -85 -98 -125 -27
-40 -69 -95 -95 -122 -26 -27 -67 -77 -92 -111 -113 -158 -267 -328 -297 -329
-14 0 -18 26 -5 32 4 2 30 34 57 72 82 112 139 190 153 206 33 38 72 94 72
103 0 6 6 18 14 26 7 9 28 59 45 111 65 192 91 231 201 295 44 26 85 54 91 61
6 8 16 14 21 14 6 0 5 -7 -2 -15z m-4866 -93 c-20 -51 -56 -112 -91 -150 -37
-40 -39 -2 -4 55 17 28 31 56 31 63 0 16 29 69 55 98 20 24 20 24 23 3 2 -12
-5 -43 -14 -69z m6188 -106 c33 -41 63 -143 54 -180 -4 -15 -27 -41 -54 -61
-51 -37 -67 -43 -59 -21 3 8 -1 29 -9 45 -16 33 -16 81 1 82 5 0 13 -13 18
-30 9 -37 23 -47 42 -31 19 16 19 40 0 76 -8 16 -15 43 -15 60 0 16 -4 34 -9
40 -5 5 -12 19 -16 32 -10 34 16 28 47 -12z m-158 -161 c9 -14 19 -46 22 -72
4 -27 13 -53 21 -60 16 -12 14 -44 -2 -50 -15 -4 -53 89 -70 175 -8 38 6 42
29 7z m544 -38 c23 -23 42 -47 42 -52 0 -4 7 -17 17 -27 15 -17 15 -18 0 -18
-10 0 -17 4 -17 9 0 4 -22 31 -50 59 -47 47 -61 72 -42 72 4 0 27 -19 50 -43z
m-132 -84 c-3 -21 -6 -46 -6 -56 0 -15 -3 -16 -20 -7 -25 13 -25 29 -2 69 23
42 36 39 28 -6z m-1859 -365 c-35 -52 -180 -208 -194 -208 -3 0 -15 -7 -25
-17 -29 -26 -33 -8 -7 34 32 51 59 83 156 182 61 62 86 82 94 74 8 -8 2 -26
-24 -65z m186 -99 c-47 -92 -109 -176 -223 -302 -65 -71 -141 -137 -160 -137
-16 0 -12 28 6 42 41 33 84 84 192 228 136 181 192 244 204 232 5 -5 -3 -32
-19 -63z m-4854 15 c12 -15 21 -35 21 -45 0 -10 5 -21 10 -24 10 -6 50 -78 50
-90 0 -25 -70 57 -104 123 -30 59 -15 84 23 36z m4183 -160 c-9 -86 -119 -293
-186 -351 -14 -13 -26 -27 -26 -33 0 -12 -40 -34 -47 -26 -7 7 153 328 187
376 54 76 78 87 72 34z m226 -180 c2 -13 -13 -40 -37 -70 -67 -84 -229 -244
-246 -244 -20 0 -8 24 51 100 23 30 54 78 68 105 15 28 43 69 62 93 30 36 41
43 67 40 24 -2 33 -9 35 -24z m914 -25 c-19 -17 -37 -27 -40 -24 -8 8 44 55
61 55 7 0 -3 -14 -21 -31z m-1428 -121 c-4 -13 -14 -28 -23 -35 -9 -6 -31 -25
-49 -41 -18 -16 -72 -56 -120 -88 -48 -32 -97 -71 -110 -86 -25 -30 -58 -36
-86 -15 -17 13 -16 15 15 35 19 12 63 42 99 67 36 25 72 45 82 45 9 0 23 9 31
20 15 21 82 70 97 70 5 0 20 11 34 25 31 31 39 32 30 3z m-2239 -114 c29 -19
32 -34 9 -34 -16 0 -43 27 -44 43 0 11 8 9 35 -9z m100 -68 c35 -28 30 -40
-11 -26 -37 13 -64 50 -37 50 10 0 32 -11 48 -24z m2465 -135 c0 -20 -17 -37
-27 -28 -7 8 7 47 18 47 5 0 9 -9 9 -19z m-66 -115 c-6 -16 -24 -23 -24 -8 0
10 22 33 27 28 2 -2 1 -11 -3 -20z m-2010 -135 c15 -16 26 -37 24 -46 -2 -12
-12 -4 -35 29 -37 52 -31 61 11 17z"/>
<path d="M11445 9650 c-8 -14 3 -30 21 -30 8 0 14 9 14 20 0 21 -24 28 -35 10z"/>
<path d="M11820 8885 c0 -15 4 -24 10 -20 6 3 10 12 10 20 0 8 -4 17 -10 20
-6 4 -10 -5 -10 -20z"/>
<path d="M11990 8495 c0 -8 7 -15 15 -15 8 0 15 7 15 15 0 8 -7 15 -15 15 -8
0 -15 -7 -15 -15z"/>
<path d="M12176 7241 c-9 -14 5 -42 18 -38 15 5 14 39 -1 44 -6 2 -14 0 -17
-6z"/>
<path d="M12232 7144 c3 -17 21 -21 26 -6 1 5 -4 12 -13 16 -11 4 -15 1 -13
-10z"/>
<path d="M12206 6406 c7 -19 38 -22 32 -3 -3 6 -12 13 -21 15 -12 2 -15 -1
-11 -12z"/>
<path d="M12200 6185 c0 -8 7 -15 15 -15 8 0 15 7 15 15 0 8 -7 15 -15 15 -8
0 -15 -7 -15 -15z"/>
<path d="M12201 6136 c-13 -15 -4 -26 21 -26 21 0 24 25 4 33 -8 3 -19 0 -25
-7z"/>
<path d="M12095 5700 c3 -5 15 -10 26 -10 10 0 19 -4 19 -10 0 -5 5 -10 10
-10 16 0 11 27 -6 34 -25 9 -56 7 -49 -4z"/>
<path d="M11410 5213 c-17 -37 -26 -238 -11 -247 6 -4 13 -1 15 6 2 7 8 29 14
48 23 72 24 220 3 220 -4 0 -14 -12 -21 -27z"/>
<path d="M11910 4995 c-10 -13 -9 -15 9 -15 12 0 21 6 21 15 0 8 -4 15 -9 15
-5 0 -14 -7 -21 -15z"/>
<path d="M11300 3900 c0 -5 7 -10 15 -10 8 0 15 5 15 10 0 6 -7 10 -15 10 -8
0 -15 -4 -15 -10z"/>
<path d="M3773 11214 c-9 -23 11 -38 26 -20 13 16 7 36 -10 36 -5 0 -12 -7
-16 -16z"/>
<path d="M3373 10694 c-26 -24 -31 -64 -8 -64 12 0 43 78 33 84 -2 1 -13 -8
-25 -20z"/>
<path d="M3238 10393 c-40 -63 -42 -67 -70 -115 -30 -51 -35 -78 -15 -78 22 0
44 23 61 65 10 22 28 63 42 90 13 28 24 56 24 63 0 23 -18 12 -42 -25z"/>
<path d="M2780 10316 c0 -16 26 -46 41 -46 16 0 10 32 -8 46 -23 17 -33 17
-33 0z"/>
<path d="M2651 10130 c-16 -9 -6 -30 15 -30 15 0 20 25 6 34 -4 2 -14 1 -21
-4z"/>
<path d="M2405 9790 c3 -5 15 -10 26 -10 11 0 17 5 14 10 -3 6 -15 10 -26 10
-11 0 -17 -4 -14 -10z"/>
<path d="M2325 9700 c-12 -20 6 -50 30 -50 32 0 39 15 18 40 -19 22 -38 26
-48 10z"/>
<path d="M2205 9380 c-7 -12 2 -30 16 -30 5 0 9 9 9 20 0 21 -15 27 -25 10z"/>
<path d="M1510 6900 c-18 -18 -28 -60 -15 -60 17 0 55 35 55 51 0 28 -17 32
-40 9z"/>
<path d="M1527 6473 c-12 -12 -7 -33 8 -33 17 0 19 9 7 28 -5 7 -11 9 -15 5z"/>
<path d="M1610 5685 c0 -8 5 -15 10 -15 6 0 10 7 10 15 0 8 -4 15 -10 15 -5 0
-10 -7 -10 -15z"/>
<path d="M1580 5620 c0 -11 5 -20 10 -20 6 0 10 9 10 20 0 11 -4 20 -10 20 -5
0 -10 -9 -10 -20z"/>
<path d="M2276 5594 c-9 -23 -7 -252 3 -384 10 -119 24 -170 48 -170 8 0 12 4
9 8 -3 5 -6 125 -7 268 0 142 -5 267 -10 277 -12 21 -35 22 -43 1z"/>
<path d="M1795 4900 c-8 -13 -1 -24 14 -19 6 3 7 10 2 18 -6 10 -10 10 -16 1z"/>
<path d="M2121 4108 c-1 -16 4 -28 9 -28 12 0 12 8 0 35 -8 18 -9 17 -9 -7z"/>
<path d="M6560 9121 c-8 -5 -85 -12 -170 -15 -85 -3 -191 -10 -235 -16 -112
-15 -152 -19 -303 -30 -73 -5 -150 -14 -170 -19 -20 -5 -73 -13 -117 -17 -44
-3 -84 -10 -90 -14 -5 -4 -44 -11 -85 -15 -74 -6 -227 -49 -306 -86 -23 -10
-47 -19 -55 -19 -8 0 -23 -7 -33 -15 -11 -8 -30 -15 -44 -15 -13 0 -47 -11
-75 -24 -29 -14 -97 -43 -152 -66 -55 -23 -121 -55 -147 -71 -26 -16 -62 -36
-80 -44 -18 -9 -55 -29 -83 -45 -27 -17 -63 -36 -80 -44 -16 -8 -48 -33 -69
-55 -34 -35 -40 -48 -44 -95 -6 -72 1 -96 43 -146 34 -41 97 -90 115 -90 5 0
25 10 44 23 19 12 64 40 101 62 36 22 94 59 128 82 34 24 75 51 91 60 15 10
43 27 60 39 18 12 50 24 72 28 21 4 61 14 87 23 30 9 64 13 87 9 21 -3 41 -2
45 3 3 5 31 13 63 17 61 7 85 17 174 71 31 19 71 38 90 43 18 5 64 20 101 34
37 14 85 26 106 26 23 0 48 8 62 19 l23 19 -36 10 c-52 14 -79 43 -85 90 -4
32 -1 47 16 68 39 49 77 65 162 69 l79 3 35 -39 c35 -39 35 -39 20 -77 -16
-39 -57 -82 -79 -82 -7 0 -23 -11 -36 -25 l-23 -25 24 0 c24 0 84 19 105 33 7
4 25 0 40 -8 32 -17 84 -19 129 -6 21 6 54 2 111 -12 l80 -19 71 31 c39 17 86
31 103 31 17 0 66 -15 108 -32 71 -31 85 -33 182 -32 58 0 118 6 133 12 16 7
68 12 117 12 92 0 160 -19 189 -54 18 -22 53 -20 97 6 31 18 41 20 68 10 31
-11 144 -28 271 -41 39 -4 80 -12 92 -19 13 -7 80 -23 150 -36 71 -14 148 -31
172 -40 24 -9 47 -14 51 -11 5 3 28 -2 52 -11 24 -8 54 -17 68 -19 14 -2 56
-15 94 -29 38 -14 77 -24 85 -21 22 7 165 -76 169 -97 5 -27 -38 -78 -66 -78
-13 0 -39 12 -57 26 -41 31 -254 117 -272 110 -24 -10 -13 -31 25 -48 20 -9
69 -31 107 -48 39 -17 86 -40 106 -51 23 -12 56 -19 88 -19 54 0 143 -40 220
-98 46 -35 88 -33 118 4 66 79 72 96 93 238 9 61 7 76 -12 128 -27 74 -64 105
-183 148 -49 18 -117 43 -150 56 -33 12 -89 32 -125 44 -36 12 -77 28 -92 36
-14 8 -34 14 -44 14 -10 0 -41 9 -69 20 -27 10 -90 31 -140 45 -49 15 -124 38
-165 52 -41 13 -106 29 -145 33 -72 10 -120 20 -245 53 -41 11 -85 19 -97 19
-40 -3 -55 -2 -198 7 -77 5 -171 14 -210 21 -38 6 -117 13 -175 15 -58 1 -118
8 -133 14 -33 13 -126 14 -147 2z m109 -90 c40 -18 111 -88 111 -110 0 -19
-41 -74 -78 -105 -28 -25 -44 -30 -87 -30 -48 -1 -58 3 -115 47 -34 27 -69 51
-78 54 -9 3 -25 13 -34 21 -14 12 -25 12 -68 2 -27 -7 -57 -10 -65 -6 -20 7
-29 -12 -14 -30 10 -12 26 -14 81 -8 41 4 68 3 68 -3 0 -12 -97 -78 -127 -87
-14 -4 -51 4 -100 23 -92 37 -93 37 -135 11 -41 -25 -78 -26 -78 -3 0 34 179
179 247 199 70 21 96 17 164 -22 41 -24 66 -34 74 -28 43 31 122 82 135 87 29
10 58 7 99 -12z m348 -22 c23 -11 52 -34 64 -50 24 -34 35 -36 44 -11 6 21 45
42 75 42 11 0 35 -13 53 -30 41 -36 58 -37 98 -8 28 21 32 21 57 7 54 -30 65
-136 21 -193 -26 -33 -46 -33 -99 3 -36 24 -48 27 -73 20 -17 -5 -35 -13 -41
-19 -17 -17 -55 -11 -96 16 -35 23 -43 25 -71 15 -59 -21 -124 -14 -161 16
-46 38 -46 38 -43 105 2 63 15 81 73 98 42 13 53 12 99 -11z"/>
<path d="M7070 8650 c0 -5 9 -10 21 -10 11 0 17 5 14 10 -3 6 -13 10 -21 10
-8 0 -14 -4 -14 -10z"/>
<path d="M7400 8596 c0 -17 22 -26 61 -26 38 0 37 15 -2 29 -43 15 -59 14 -59
-3z"/>
<path d="M7675 8530 c-3 -6 2 -13 12 -17 10 -3 23 -8 28 -11 6 -3 1 4 -9 16
-22 25 -23 25 -31 12z"/>
<path d="M7786 8511 c-8 -12 21 -34 34 -26 8 5 8 11 -1 21 -13 16 -25 18 -33
5z"/>
<path d="M7850 8492 c0 -6 8 -12 18 -15 9 -4 35 -13 57 -21 22 -9 48 -16 57
-16 29 0 30 19 1 33 -35 18 -133 31 -133 19z"/>
<path d="M8025 8450 c-11 -17 5 -30 36 -30 36 0 38 13 4 28 -31 14 -32 15 -40
2z"/>
<path d="M5242 8212 c-13 -2 -43 -23 -65 -46 -23 -23 -62 -51 -87 -61 -25 -10
-68 -34 -97 -51 -28 -18 -80 -47 -115 -64 -35 -17 -71 -36 -80 -41 -10 -5 -25
-9 -35 -9 -9 0 -26 -8 -37 -18 -12 -11 -48 -29 -81 -42 -57 -22 -81 -31 -148
-59 -25 -10 -45 -36 -36 -45 5 -5 123 20 216 44 112 31 303 44 441 32 65 -5
140 -11 167 -11 64 -2 153 -16 185 -30 42 -18 226 -130 280 -171 40 -30 98
-56 107 -47 9 10 -85 94 -142 127 -27 16 -65 42 -83 58 -55 49 -148 102 -199
113 -84 18 -233 30 -390 31 -84 0 -150 5 -147 9 3 5 11 9 18 9 8 0 19 6 25 14
7 8 27 18 44 22 18 3 38 11 46 18 15 11 34 12 310 15 116 1 167 5 172 13 12
20 50 -7 89 -64 34 -49 121 -110 136 -95 4 4 -12 33 -34 66 -23 33 -42 68 -42
79 0 56 -46 129 -100 157 -59 31 -247 58 -318 47z m266 -154 c4 -31 -2 -33
-38 -13 -14 8 -46 14 -72 15 -41 0 -65 10 -54 21 3 2 40 4 83 4 78 0 78 0 81
-27z"/>
<path d="M7760 8120 c-77 -6 -160 -36 -160 -58 0 -11 9 -14 44 -10 58 7 75 -4
42 -26 -14 -9 -26 -23 -26 -31 0 -13 30 -15 218 -13 130 1 245 -3 287 -10 39
-6 93 -14 120 -17 78 -9 90 -13 120 -37 25 -20 26 -22 9 -28 -10 -4 -34 -3
-54 1 -19 4 -44 6 -56 3 -23 -6 -166 21 -195 36 -30 17 -185 12 -199 -5 -7 -8
-23 -15 -35 -15 -13 0 -50 -20 -84 -45 -34 -25 -67 -45 -74 -45 -8 0 -22 -9
-31 -19 -10 -11 -37 -29 -59 -40 -23 -10 -51 -26 -62 -35 -20 -15 -20 -15 3
-16 22 0 139 57 172 83 8 7 26 19 40 25 37 19 66 36 84 51 25 21 202 20 244
-1 64 -33 136 -46 252 -46 110 0 120 -2 230 -43 100 -37 126 -43 200 -43 69
-1 85 2 85 14 0 12 -14 15 -62 17 -34 1 -71 7 -82 12 -11 6 -31 11 -45 11 -38
0 -41 18 -4 24 83 13 147 15 196 7 64 -10 70 -15 48 -40 -13 -14 -14 -20 -4
-23 19 -7 178 14 178 23 0 16 -67 59 -101 65 -19 4 -40 12 -47 17 -18 14 -211
14 -237 1 -12 -7 -41 -9 -70 -5 l-50 6 42 25 c24 14 43 27 43 30 0 3 -47 15
-105 28 -57 12 -117 29 -132 36 -15 8 -71 34 -123 58 -52 25 -113 53 -135 64
-34 15 -65 18 -200 19 -88 0 -189 -2 -225 -5z"/>
<path d="M4814 8064 l-29 -26 38 5 c39 6 67 22 67 38 0 19 -48 8 -76 -17z"/>
<path d="M4320 7894 c-78 -27 -92 -69 -18 -52 113 26 145 39 134 57 -10 15
-62 13 -116 -5z"/>
<path d="M4598 7742 c-21 -10 -36 -21 -35 -27 6 -17 40 -18 52 -2 6 8 22 17
35 19 13 1 25 9 28 16 5 17 -34 14 -80 -6z"/>
<path d="M5055 7662 l-40 -4 45 -12 c55 -14 143 -9 137 7 -4 13 -76 17 -142 9z"/>
<path d="M4965 7564 c-108 -19 -244 -53 -310 -79 -33 -13 -71 -26 -85 -30 -30
-9 -110 -63 -110 -74 0 -5 -9 -11 -20 -14 -15 -4 -20 -14 -20 -41 0 -31 -3
-36 -24 -36 -20 0 -24 -6 -30 -40 -3 -23 -12 -49 -18 -60 -18 -29 13 -90 46
-90 14 0 28 5 31 10 3 6 14 10 23 10 22 0 96 51 148 101 23 22 57 50 75 62 41
27 132 67 154 67 16 0 15 -19 -6 -84 -35 -112 133 -316 261 -316 24 0 73 9
111 20 79 24 115 59 167 162 24 49 30 71 26 98 -5 27 -1 39 14 53 18 17 21 17
63 -1 48 -21 119 -98 119 -130 0 -10 -16 -40 -35 -65 -33 -43 -57 -61 -115
-87 -14 -6 -41 -22 -60 -34 -30 -21 -58 -29 -167 -52 -13 -2 -23 -11 -23 -19
0 -20 41 -29 101 -22 28 4 67 1 91 -6 42 -13 125 -4 144 16 4 4 20 7 36 7 45
0 98 26 98 49 0 17 9 20 68 25 37 3 84 6 105 6 46 0 50 23 7 45 -22 12 -35 13
-49 5 -31 -16 -111 -13 -117 5 -9 21 11 42 47 49 29 6 29 6 13 31 -9 14 -24
25 -33 25 -20 0 -97 78 -87 88 4 3 43 -13 87 -36 63 -34 81 -39 85 -28 9 23
-1 32 -107 102 -128 84 -191 112 -275 123 -38 5 -82 14 -99 21 -35 14 -299 15
-445 2 -52 -5 -120 -19 -150 -31 -49 -18 -229 -45 -239 -35 -11 10 12 34 34
34 14 0 25 4 25 10 0 5 12 13 28 16 15 4 34 12 42 19 8 7 31 15 50 18 19 2 94
21 165 41 72 20 153 36 180 36 28 0 66 4 85 8 69 16 192 -7 350 -65 52 -20
136 -50 185 -68 50 -17 101 -36 115 -42 79 -32 150 -54 162 -50 7 3 3 6 -9 6
-12 1 -26 7 -30 14 -32 50 -296 172 -478 220 -189 50 -259 55 -400 31z m129
-310 c9 -22 8 -24 -9 -24 -8 0 -15 9 -15 20 0 24 15 27 24 4z"/>
<path d="M8925 7550 c-7 -12 102 -135 119 -135 13 0 19 46 9 60 -5 6 -27 27
-51 48 -43 37 -66 45 -77 27z"/>
<path d="M7880 7500 c0 -13 11 -13 30 0 12 8 11 10 -7 10 -13 0 -23 -4 -23
-10z"/>
<path d="M7420 7340 c-8 -5 -11 -12 -7 -16 4 -4 15 0 24 9 18 18 8 23 -17 7z"/>
<path d="M7548 7303 c-18 -4 -32 -30 -20 -37 4 -2 18 4 31 13 24 19 19 30 -11
24z"/>
<path d="M7665 7140 c-16 -4 -51 -8 -77 -9 -58 -1 -66 -13 -31 -41 23 -18 38
-21 87 -18 69 4 84 -12 35 -37 -25 -13 -49 -16 -108 -12 -42 3 -91 9 -108 12
-29 7 -33 5 -33 -14 0 -12 -5 -30 -12 -41 -14 -22 -3 -39 14 -22 8 8 46 12
103 12 79 0 94 -3 110 -20 29 -32 98 -60 149 -60 26 0 59 -6 74 -13 21 -10 66
-11 197 -6 106 4 177 3 189 -3 10 -5 29 -8 41 -5 38 7 53 -8 31 -32 -16 -18
-17 -24 -6 -52 14 -33 104 -129 120 -129 15 0 12 16 -5 30 -8 7 -15 20 -15 28
0 9 -14 30 -31 48 -23 24 -29 37 -24 54 5 17 12 20 30 16 29 -7 44 13 22 29
-27 20 -20 23 41 22 49 -1 65 3 118 36 34 20 65 37 69 37 20 0 115 84 115 101
0 28 -27 24 -116 -20 -109 -54 -142 -68 -194 -82 -25 -7 -49 -16 -54 -21 -6
-4 -26 -8 -46 -8 -20 0 -41 -5 -47 -11 -7 -7 -22 -7 -49 0 -22 6 -77 17 -124
26 -47 9 -112 25 -145 35 -33 11 -72 22 -86 25 -39 7 -117 71 -139 115 -21 42
-33 46 -95 30z"/>
<path d="M6962 7098 c-12 -12 -17 -134 -6 -162 3 -9 14 -16 24 -16 15 0 20 11
25 54 8 64 -2 136 -19 136 -7 0 -17 -5 -24 -12z"/>
<path d="M4555 7093 c-11 -3 -28 -13 -37 -23 -10 -10 -26 -21 -37 -25 -10 -3
-22 -12 -25 -21 -3 -8 -15 -18 -26 -22 -21 -8 -21 -8 5 -55 35 -68 12 -73 -57
-13 -82 72 -113 56 -35 -18 86 -81 119 -106 142 -106 18 0 25 7 30 33 4 17 13
41 20 53 26 41 28 87 5 114 l-22 25 22 3 c12 2 29 -3 39 -12 25 -22 228 -116
252 -116 11 0 30 -5 41 -11 15 -8 23 -8 31 0 17 17 -4 33 -138 102 -66 34
-131 70 -144 80 -24 19 -31 20 -66 12z"/>
<path d="M7212 7075 c-7 -14 -12 -32 -12 -39 0 -15 30 -78 40 -86 4 -3 10 -16
13 -30 9 -34 72 -100 95 -100 12 0 22 9 25 23 2 12 8 31 11 42 7 18 6 18 -4 3
-6 -10 -23 -18 -40 -18 -22 0 -33 8 -49 34 -27 44 -53 128 -49 162 4 36 -16
41 -30 9z"/>
<path d="M6316 7032 c-8 -13 8 -107 18 -107 5 0 18 13 30 28 19 26 19 30 5 55
-15 27 -43 40 -53 24z"/>
<path d="M3919 6928 c-2 -65 4 -122 17 -146 7 -15 14 -39 14 -53 0 -14 7 -34
15 -45 8 -10 15 -27 15 -36 0 -9 5 -20 11 -24 22 -14 27 13 13 76 -8 36 -19
92 -25 125 -16 91 -58 162 -60 103z"/>
<path d="M5686 6821 c-3 -4 -27 -11 -53 -14 -28 -3 -52 -12 -60 -22 -7 -10
-21 -23 -31 -29 -43 -25 -172 -128 -172 -137 0 -25 99 17 183 79 31 23 61 42
65 42 4 0 23 10 42 22 19 13 50 27 69 33 50 15 52 35 2 35 -22 0 -42 -4 -45
-9z"/>
<path d="M7680 6820 c0 -5 8 -10 18 -10 9 0 33 -11 53 -24 38 -26 107 -49 121
-40 5 3 2 14 -6 23 -12 13 -13 20 -4 29 19 19 -20 27 -40 9 -15 -14 -19 -14
-41 4 -24 20 -101 27 -101 9z"/>
<path d="M8560 6819 c0 -17 20 -49 30 -49 6 0 10 14 10 30 0 23 -4 30 -20 30
-11 0 -20 -5 -20 -11z"/>
<path d="M5000 6809 c-149 -7 -203 -16 -195 -29 8 -13 185 -20 280 -12 50 5
105 5 123 0 46 -13 166 -15 172 -3 9 17 -53 40 -115 41 -33 1 -73 4 -90 6 -16
3 -95 2 -175 -3z"/>
<path d="M7966 6801 c-58 -6 -85 -24 -49 -34 10 -3 72 -2 138 1 103 6 120 9
123 25 3 15 -5 17 -75 15 -43 -1 -105 -4 -137 -7z"/>
<path d="M7890 6731 c0 -12 29 -23 41 -15 5 3 7 10 4 15 -8 12 -45 12 -45 0z"/>
<path d="M8180 6705 c0 -8 5 -15 10 -15 6 0 10 7 10 15 0 8 -4 15 -10 15 -5 0
-10 -7 -10 -15z"/>
<path d="M6867 6624 c-10 -11 -9 -41 5 -86 7 -24 36 -65 74 -106 88 -93 87
-92 109 -147 23 -56 51 -68 48 -22 l-2 29 25 -27 c14 -15 27 -40 31 -56 3 -16
11 -34 19 -40 7 -6 17 -27 20 -47 4 -20 15 -50 25 -66 9 -16 15 -36 12 -45 -4
-9 3 -5 15 9 26 33 28 49 13 82 -12 23 -10 31 12 68 21 36 23 46 14 76 -7 23
-7 38 0 45 15 15 55 -5 78 -40 25 -38 31 -39 40 -4 5 21 2 31 -13 44 -11 9
-27 32 -36 52 -11 28 -21 37 -39 37 -14 0 -30 -7 -37 -15 -18 -21 -30 -9 -30
29 0 25 -5 35 -19 39 -32 8 -43 -7 -41 -59 2 -27 2 -55 1 -61 -2 -21 -19 -15
-26 10 -10 31 -45 67 -66 67 -9 0 -22 7 -29 15 -7 8 -22 15 -35 15 -37 0 -74
57 -52 80 9 10 9 14 -2 17 -7 3 -23 17 -35 31 -58 69 -72 83 -79 76z"/>
<path d="M7050 6595 c17 -21 99 -65 120 -65 10 0 20 -4 22 -8 5 -13 74 -52 80
-46 11 11 -39 51 -114 92 -79 43 -132 56 -108 27z"/>
<path d="M8930 6485 c0 -8 -4 -15 -9 -15 -28 0 -191 -167 -191 -197 0 -46 124
61 198 170 37 55 37 57 17 57 -8 0 -15 -7 -15 -15z"/>
<path d="M7080 6176 c0 -33 30 -82 40 -66 11 18 0 57 -21 76 -18 16 -19 16
-19 -10z"/>
<path d="M8090 6070 c0 -15 64 -41 68 -29 6 17 -19 39 -44 39 -13 0 -24 -5
-24 -10z"/>
<path d="M8620 5993 c-16 -7 -45 -43 -45 -56 0 -5 24 -10 54 -11 63 -2 75 13
41 50 -25 25 -26 26 -50 17z"/>
<path d="M7156 5981 c-10 -15 5 -62 18 -58 15 5 14 59 -1 64 -6 2 -14 0 -17
-6z"/>
<path d="M8005 5917 c-11 -26 25 -209 47 -245 11 -18 23 -31 25 -28 9 8 -17
178 -34 226 -19 55 -30 69 -38 47z"/>
<path d="M6910 5800 c0 -3 30 -20 68 -36 82 -38 166 -44 182 -14 15 27 13 30
-18 30 -16 0 -51 7 -78 15 -46 13 -154 17 -154 5z"/>
<path d="M7725 5800 c-9 -15 23 -50 47 -50 15 0 19 6 16 28 -2 21 -9 28 -30
30 -14 2 -29 -2 -33 -8z"/>
<path d="M4362 5768 c-26 -26 -11 -138 19 -138 9 0 19 104 12 129 -6 24 -14
26 -31 9z"/>
<path d="M4187 5693 c-13 -12 -7 -33 8 -33 8 0 15 9 15 20 0 20 -11 26 -23 13z"/>
<path d="M4165 5590 c-4 -22 -6 -42 -5 -45 1 -4 -6 -18 -15 -32 -23 -34 -13
-97 14 -88 23 7 46 -43 37 -81 -5 -17 -1 -35 10 -51 23 -36 34 -14 34 70 0 55
-4 74 -21 95 -19 24 -20 35 -14 100 6 68 5 72 -13 72 -16 0 -22 -9 -27 -40z"/>
<path d="M5758 5481 c-62 -27 -98 -66 -98 -106 0 -22 6 -38 15 -41 19 -8 19
-21 0 -58 -19 -36 -19 -36 10 -36 28 0 89 50 111 92 17 33 24 143 9 156 -6 6
-24 3 -47 -7z"/>
<path d="M4136 5374 c-9 -24 -7 -54 4 -54 6 0 10 16 10 35 0 38 -4 44 -14 19z"/>
<path d="M7167 5253 c-28 -49 -30 -143 -4 -143 6 0 21 -12 33 -27 12 -16 26
-25 30 -21 4 5 -1 17 -11 28 -12 13 -19 42 -23 90 -4 65 -14 92 -25 73z"/>
<path d="M5537 5173 c-13 -12 -7 -23 13 -23 11 0 20 7 20 15 0 15 -21 21 -33
8z"/>
<path d="M6963 5163 c-7 -2 -13 -11 -13 -19 0 -18 46 -18 53 0 9 23 -9 32 -40
19z"/>
<path d="M8280 5118 c0 -38 2 -41 15 -27 12 12 14 21 6 42 -15 38 -21 33 -21
-15z"/>
<path d="M5467 5122 c-22 -24 -21 -32 2 -32 20 0 51 25 51 41 0 16 -36 10 -53
-9z"/>
<path d="M5412 5048 c-7 -7 -12 -18 -12 -25 0 -11 4 -11 20 -1 11 7 20 18 20
25 0 16 -12 17 -28 1z"/>
<path d="M7078 5055 c-3 -5 -4 -44 -2 -85 3 -41 5 -98 4 -127 0 -28 3 -54 9
-57 5 -4 7 -47 4 -104 -6 -97 5 -150 28 -137 5 4 9 84 9 187 0 153 -3 190 -19
237 -11 31 -21 65 -23 76 -2 11 -6 16 -10 10z"/>
<path d="M4010 5023 c0 -16 -4 -33 -10 -39 -5 -5 -11 -59 -12 -119 -3 -114 10
-201 37 -242 8 -12 15 -31 15 -43 0 -11 5 -20 11 -20 7 0 8 28 2 88 -4 48 -7
98 -6 112 2 65 13 182 18 190 3 5 -3 16 -12 25 -9 10 -17 29 -18 43 0 36 -25
41 -25 5z"/>
<path d="M5611 4965 c-17 -20 -31 -41 -31 -48 0 -8 3 -9 8 -1 4 6 28 23 55 38
52 31 60 46 23 46 -15 0 -36 -13 -55 -35z"/>
<path d="M4150 4953 c0 -10 -7 -36 -15 -58 -19 -53 -20 -159 -1 -174 23 -20
33 12 40 137 6 98 5 112 -8 112 -9 0 -16 -8 -16 -17z"/>
<path d="M4560 4955 c0 -7 -8 -19 -17 -24 -16 -9 -16 -10 4 -11 25 0 34 -21
35 -79 0 -49 13 -73 28 -51 10 14 4 154 -7 173 -8 13 -43 7 -43 -8z"/>
<path d="M5340 4938 c0 -18 -3 -43 -6 -55 -4 -14 -2 -23 5 -23 6 0 11 11 11
24 0 14 7 31 15 40 21 21 19 46 -5 46 -16 0 -20 -7 -20 -32z"/>
<path d="M7220 4888 c0 -20 5 -40 10 -43 13 -8 13 45 0 65 -7 11 -10 6 -10
-22z"/>
<path d="M4697 4688 c-8 -18 -21 -39 -30 -47 -22 -18 -22 -41 1 -41 16 1 63
80 62 108 0 23 -20 12 -33 -20z"/>
<path d="M5333 4663 c-28 -31 -63 -95 -63 -115 0 -7 -14 -25 -32 -40 -30 -24
-32 -29 -20 -48 12 -19 11 -22 -7 -27 -16 -4 -19 -11 -14 -34 4 -20 -3 -46
-21 -85 -26 -54 -28 -84 -7 -84 5 0 11 10 13 22 4 29 37 36 55 13 12 -17 16
-15 57 21 24 21 45 47 45 57 1 9 6 17 12 17 6 0 8 -9 4 -20 -3 -11 -3 -29 0
-40 6 -20 7 -20 36 -3 16 10 29 20 29 24 0 4 11 21 25 37 22 26 23 31 9 50
-13 19 -18 20 -35 9 -17 -10 -23 -9 -40 12 -10 13 -19 29 -19 37 0 19 35 18
66 -2 19 -13 28 -14 37 -5 13 13 1 27 -28 33 -27 5 -82 95 -67 110 15 15 16
88 2 88 -6 0 -22 -12 -37 -27z"/>
<path d="M7272 4548 c-14 -14 -16 -38 -2 -38 9 0 30 31 30 44 0 10 -15 7 -28
-6z"/>
<path d="M7306 4456 c-3 -14 -3 -32 1 -42 6 -16 7 -16 20 2 17 24 17 64 -1 64
-8 0 -17 -11 -20 -24z"/>
<path d="M8690 4376 c0 -8 5 -18 10 -21 6 -3 10 3 10 14 0 12 -4 21 -10 21 -5
0 -10 -6 -10 -14z"/>
<path d="M7362 4338 c-5 -7 -13 -29 -17 -48 -3 -19 -18 -73 -31 -119 -20 -66
-23 -89 -15 -110 6 -14 13 -43 17 -64 6 -34 8 -36 19 -20 13 19 22 53 56 213
27 126 26 160 -5 160 -8 0 -18 -6 -24 -12z"/>
<path d="M7216 4312 c-9 -18 -21 -32 -26 -32 -13 0 -58 -98 -74 -162 -23 -91
-26 -135 -16 -209 9 -60 8 -76 -5 -95 -8 -13 -15 -30 -15 -39 0 -9 -6 -28 -14
-43 -8 -15 -17 -56 -21 -92 -6 -61 -5 -67 19 -95 15 -16 31 -48 37 -70 10 -38
12 -39 25 -20 32 43 25 76 -35 170 -12 18 -9 27 17 70 23 38 33 70 41 135 17
138 48 277 74 328 30 59 41 143 23 168 -13 17 -15 16 -30 -14z"/>
<path d="M8685 4310 c-4 -6 -5 -48 -4 -93 1 -45 -3 -95 -9 -110 -15 -35 -16
-154 -2 -162 29 -18 37 17 44 178 4 90 4 171 0 180 -7 19 -20 22 -29 7z"/>
<path d="M6474 4279 c-4 -7 -9 -62 -11 -122 -4 -108 -7 -120 -43 -187 -23 -42
-25 -64 -6 -79 10 -9 16 -8 26 4 10 12 16 13 26 4 26 -21 43 -3 37 39 -3 22 0
57 7 77 28 85 -3 316 -36 264z"/>
<path d="M5314 4223 c-10 -16 -18 -30 -17 -33 1 -3 -7 -36 -17 -74 -17 -63
-17 -106 -1 -106 12 0 51 45 51 59 0 6 9 25 21 40 19 26 20 31 6 57 -8 16 -13
42 -10 57 7 35 -10 35 -33 0z"/>
<path d="M8529 4240 c0 -3 -2 -47 -4 -97 -2 -69 1 -96 11 -104 20 -17 29 13
29 99 -1 54 -5 76 -18 89 -9 10 -17 15 -18 13z"/>
<path d="M5217 4088 c-2 -7 -9 -28 -15 -45 -5 -18 -7 -33 -3 -33 18 0 52 44
49 63 -3 24 -26 35 -31 15z"/>
<path d="M4321 4073 c0 -10 16 -38 35 -63 18 -25 38 -55 43 -67 6 -11 15 -24
20 -28 6 -3 11 -16 11 -28 0 -12 9 -38 20 -57 46 -82 120 -239 126 -267 3 -18
17 -42 30 -54 21 -20 24 -20 30 -5 11 29 -25 137 -87 259 -16 31 -29 69 -29
82 0 58 -149 245 -195 245 -3 0 -5 -8 -4 -17z"/>
<path d="M5246 3982 c-3 -6 -1 -14 5 -17 15 -10 25 3 12 16 -7 7 -13 7 -17 1z"/>
<path d="M7290 3865 c0 -15 4 -24 10 -20 6 3 10 12 10 20 0 8 -4 17 -10 20 -6
4 -10 -5 -10 -20z"/>
<path d="M5236 3863 c-3 -10 -11 -26 -18 -36 -11 -14 -10 -19 2 -27 8 -5 24
-7 35 -5 11 2 30 4 43 4 32 1 28 33 -8 59 -35 27 -46 27 -54 5z"/>
<path d="M7250 3787 c0 -8 -6 -20 -14 -26 -19 -16 -46 -101 -46 -145 0 -19 4
-46 10 -60 11 -30 -9 -177 -34 -241 -8 -22 -15 -57 -16 -77 0 -40 17 -94 27
-85 10 10 42 110 43 132 0 30 37 84 64 94 22 9 24 15 28 113 4 81 11 117 32
167 25 62 35 131 18 131 -8 0 -84 -146 -96 -182 -3 -10 -12 -18 -21 -18 -17 0
-20 30 -6 58 9 17 32 105 35 131 0 8 -5 16 -11 18 -7 3 -13 -2 -13 -10z"/>
<path d="M5252 3758 c2 -12 10 -23 18 -23 22 0 19 39 -3 43 -15 3 -18 -1 -15
-20z"/>
<path d="M8492 3707 c-5 -7 -10 -52 -11 -101 -1 -48 -8 -105 -15 -125 -28 -78
-38 -113 -32 -118 14 -15 38 13 72 84 34 71 38 85 38 167 1 82 -1 89 -21 97
-14 5 -25 4 -31 -4z"/>
<path d="M5162 3643 c-20 -38 12 -58 43 -27 12 12 13 19 4 30 -16 19 -36 18
-47 -3z"/>
<path d="M7734 3503 c-17 -32 -46 -84 -63 -115 -33 -59 -37 -93 -11 -93 8 0
19 11 26 25 6 14 20 43 30 65 10 22 31 58 47 80 27 39 33 85 12 92 -6 2 -24
-23 -41 -54z"/>
<path d="M6150 3460 c0 -5 7 -10 15 -10 8 0 15 5 15 10 0 6 -7 10 -15 10 -8 0
-15 -4 -15 -10z"/>
<path d="M7510 3267 c0 -32 55 -49 90 -27 16 10 15 11 -23 28 -37 16 -67 15
-67 -1z"/>
<path d="M7038 3099 c-10 -5 -18 -15 -18 -22 -1 -20 -100 -117 -119 -117 -10
0 -26 10 -35 23 -15 22 -16 22 -31 2 -25 -31 -15 -50 29 -53 31 -3 49 4 92 34
30 20 54 40 54 44 0 4 16 23 35 43 48 49 43 76 -7 46z"/>
<path d="M6322 2908 c-18 -18 -14 -37 14 -63 l25 -24 -45 -6 c-25 -4 -46 -11
-46 -16 0 -5 19 -17 43 -26 23 -9 75 -34 116 -55 78 -40 111 -47 111 -25 0 24
-67 109 -121 153 -29 24 -57 50 -61 59 -11 18 -20 19 -36 3z"/>
<path d="M5602 2898 c-14 -14 -16 -28 -2 -28 5 0 14 9 20 20 12 22 1 27 -18 8z"/>
<path d="M5702 2808 c-7 -7 -12 -20 -12 -29 0 -9 -7 -19 -15 -23 -15 -6 -21
-56 -7 -56 17 0 102 86 102 103 0 20 -49 24 -68 5z"/>
<path d="M8214 2796 c-4 -10 -2 -22 4 -28 8 -8 13 -7 18 6 4 10 2 22 -4 28 -8
8 -13 7 -18 -6z"/>
<path d="M8178 2733 c-9 -10 -19 -29 -23 -43 -4 -14 -33 -54 -65 -90 -31 -36
-62 -75 -68 -87 l-12 -21 39 18 c59 29 161 163 161 212 0 32 -10 35 -32 11z"/>
<path d="M5750 2720 c0 -11 -4 -20 -9 -20 -18 0 -41 -31 -41 -55 0 -22 3 -23
23 -14 42 19 77 109 42 109 -8 0 -15 -9 -15 -20z"/>
<path d="M6338 2669 c-24 -14 -23 -29 3 -29 28 0 61 19 54 31 -8 12 -35 11
-57 -2z"/>
<path d="M5763 2585 c-21 -25 -50 -68 -65 -96 l-27 -51 21 -28 c11 -16 28 -32
36 -35 21 -8 42 13 42 43 0 26 60 125 93 153 30 25 18 53 -25 57 -32 3 -40 -2
-75 -43z"/>
<path d="M6926 2595 c-20 -14 -39 -25 -42 -25 -3 0 -27 -14 -53 -31 -31 -20
-57 -48 -72 -77 -13 -25 -35 -56 -49 -69 -17 -15 -21 -25 -14 -30 21 -14 27
-53 10 -59 -9 -3 -16 -15 -16 -25 0 -23 2 -23 43 -5 30 13 187 155 187 170 0
4 -11 11 -25 16 -30 12 -33 36 -4 45 24 8 88 74 89 92 0 23 -18 22 -54 -2z"/>
<path d="M6264 2580 c-48 -19 -40 -34 36 -77 30 -18 67 -44 81 -60 47 -51 91
-121 87 -138 -1 -9 -21 -30 -43 -46 -40 -29 -42 -29 -115 -20 -41 5 -106 18
-145 29 -89 26 -121 20 -140 -26 -20 -45 -19 -52 5 -52 11 0 20 5 20 11 0 7 9
9 22 6 13 -4 29 0 38 8 13 12 24 12 75 1 32 -8 73 -12 92 -9 25 4 33 2 33 -9
0 -26 -29 -44 -50 -30 -12 7 -29 8 -48 3 -18 -6 -46 -5 -70 2 -39 10 -44 9
-81 -21 -22 -18 -43 -32 -48 -32 -15 0 -55 -49 -48 -60 10 -16 24 -12 48 13
26 28 78 48 106 40 12 -3 21 -7 21 -9 0 -2 -20 -22 -45 -45 -33 -31 -43 -45
-35 -53 8 -8 14 -6 21 6 8 14 14 15 34 6 14 -6 25 -17 25 -24 0 -24 99 -114
125 -114 44 0 36 19 -30 70 -60 48 -82 80 -54 80 6 0 56 -23 112 -50 55 -28
105 -49 111 -47 20 7 11 31 -14 37 -27 6 -100 95 -100 120 1 26 37 60 87 82
42 18 136 93 155 123 6 10 -7 67 -27 118 -13 31 22 19 51 -18 14 -19 35 -35
45 -35 25 0 25 0 -15 84 -18 39 -38 83 -44 97 -10 26 -14 27 -119 33 -59 4
-115 9 -123 11 -8 2 -25 0 -36 -5z"/>
<path d="M5862 2444 c-34 -23 -29 -67 10 -98 25 -19 32 -32 32 -60 0 -43 10
-46 25 -8 7 15 20 43 31 62 l18 35 -41 43 c-23 23 -44 42 -47 42 -3 0 -16 -7
-28 -16z"/>
<path d="M5877 2182 c-28 -29 -36 -77 -14 -85 20 -7 67 26 74 51 4 16 -1 30
-14 43 -19 19 -19 19 -46 -9z"/>
<path d="M6630 2182 c0 -16 28 -34 34 -23 4 6 -3 15 -14 21 -11 6 -20 7 -20 2z"/>
<path d="M5754 2145 c-3 -8 -3 -19 1 -25 11 -18 25 -11 25 15 0 27 -17 34 -26
10z"/>
<path d="M6992 2109 c-18 -9 -41 -24 -51 -33 -9 -8 -37 -24 -63 -36 -25 -11
-48 -27 -52 -35 -7 -20 -65 -19 -88 2 -17 15 -19 15 -33 -3 -19 -25 -19 -30 3
-52 22 -22 90 -18 99 4 3 8 16 14 29 14 24 0 66 16 140 53 37 18 43 25 47 61
3 22 5 41 4 41 -1 1 -17 -7 -35 -16z"/>
<path d="M6597 2103 c-3 -5 -8 -26 -11 -49 -7 -37 -17 -58 -58 -117 -11 -15
-10 -20 6 -33 28 -20 43 -18 61 9 16 24 39 173 29 188 -6 11 -21 12 -27 2z"/>
<path d="M5872 1928 c8 -24 55 -48 111 -56 32 -5 60 -6 62 -2 9 15 -32 38 -93
54 -76 19 -85 20 -80 4z"/>
<path d="M7022 1800 c-17 -11 -34 -30 -38 -44 -3 -13 -12 -27 -20 -30 -16 -6
-19 -26 -3 -26 20 0 77 51 89 81 16 39 11 42 -28 19z"/>
<path d="M6796 1781 c-9 -14 12 -61 29 -67 26 -10 30 4 12 41 -17 35 -31 43
-41 26z"/>
<path d="M9587 5774 c-8 -8 1 -24 14 -24 5 0 9 7 9 15 0 15 -12 20 -23 9z"/>
<path d="M9596 5393 c-3 -3 -6 -19 -6 -34 0 -15 -7 -29 -15 -33 -18 -7 -21
-60 -2 -54 6 3 14 15 15 29 2 13 10 28 18 32 8 4 14 19 14 32 0 25 -12 39 -24
28z"/>
<path d="M9535 5240 c-4 -6 -3 -16 3 -22 6 -6 12 -6 17 2 4 6 3 16 -3 22 -6 6
-12 6 -17 -2z"/>
</g>
</svg>
