<?xml version="1.0" standalone="no"?>
<!DOCTYPE svg PUBLIC "-//W3C//DTD SVG 20010904//EN"
 "http://www.w3.org/TR/2001/REC-SVG-20010904/DTD/svg10.dtd">
<svg version="1.0" xmlns="http://www.w3.org/2000/svg"
 width="256.000000pt" height="256.000000pt" viewBox="0 0 256.000000 256.000000"
 preserveAspectRatio="xMidYMid meet">

<g transform="translate(0.000000,256.000000) scale(0.100000,-0.100000)"
fill="#000000" stroke="none">
<path d="M1280 2439 c0 -37 -7 -48 -79 -123 -88 -92 -111 -135 -111 -208 0
-60 18 -97 67 -137 31 -26 35 -33 23 -41 -34 -22 -59 -10 -84 37 -18 36 -50
57 -73 49 -12 -5 -10 -12 11 -37 14 -17 26 -40 27 -52 1 -46 8 -79 20 -93 19
-24 28 -16 16 16 -14 36 -3 49 21 27 23 -21 36 -22 29 -2 -4 8 -2 17 4 20 5 4
13 -4 18 -17 10 -23 10 -22 10 5 1 29 20 38 22 10 0 -14 2 -15 6 -3 3 8 12 19
19 23 23 13 16 34 -30 86 -64 72 -67 106 -20 197 42 82 58 91 25 15 -23 -55
-26 -86 -11 -127 14 -37 25 -22 21 31 -1 27 2 45 8 45 6 0 11 -9 11 -20 0 -11
14 -49 31 -85 22 -47 36 -65 50 -65 14 0 19 -7 19 -27 0 -39 11 -51 44 -51 24
0 31 7 44 39 18 47 29 42 38 -18 5 -36 9 -42 16 -29 6 11 6 28 -1 48 -6 17
-11 44 -11 59 0 53 -49 22 -60 -37 l-7 -39 -12 32 c-7 18 -28 42 -47 54 -37
23 -64 65 -64 100 0 12 14 62 31 112 33 97 36 160 8 220 -18 39 -29 34 -29
-14z m9 -166 c-12 -26 -25 -41 -27 -34 -2 7 6 34 19 59 12 26 24 41 27 34 2
-7 -7 -33 -19 -59z m-19 37 c0 -5 -4 -10 -10 -10 -5 0 -10 5 -10 10 0 6 5 10
10 10 6 0 10 -4 10 -10z"/>
<path d="M730 2254 c-48 -10 -176 -46 -248 -71 -102 -36 -102 -41 -37 -334 45
-202 98 -370 125 -394 18 -16 26 -17 73 -6 29 6 107 33 172 60 120 48 155 53
155 21 0 -14 -12 -18 -62 -23 -140 -13 -228 -87 -228 -189 1 -67 31 -123 86
-158 27 -16 56 -30 66 -30 22 0 22 2 -2 -51 -54 -119 -7 -209 148 -286 2 -1
-4 -12 -13 -26 -8 -13 -18 -47 -22 -75 -7 -63 19 -122 77 -176 22 -20 40 -44
40 -54 0 -33 59 -141 98 -179 22 -21 42 -52 46 -69 8 -37 24 -54 89 -96 38
-24 62 -32 116 -36 117 -8 222 36 332 140 44 41 47 47 54 113 4 38 11 80 17
95 5 14 56 95 113 180 203 304 208 331 115 621 -23 72 -54 148 -72 175 -46 68
-82 84 -191 84 -56 0 -86 4 -82 10 3 5 1 35 -4 66 l-11 56 35 33 c38 36 43 61
20 106 -36 68 -144 94 -184 43 -12 -15 -21 -33 -21 -41 0 -29 -24 -6 -38 36
-22 65 -51 74 -187 56 -60 -8 -118 -22 -132 -31 -23 -14 -25 -21 -19 -60 5
-43 4 -45 -37 -74 -23 -17 -50 -38 -61 -46 -11 -9 -21 -12 -25 -7 -3 6 -16 15
-28 21 -16 9 -23 25 -28 64 -4 29 -22 130 -41 225 -34 175 -64 272 -89 293
-16 13 -78 21 -115 14z m113 -121 c14 -43 30 -109 37 -148 6 -38 22 -129 36
-202 31 -158 29 -164 -68 -198 -35 -13 -99 -39 -142 -59 -44 -20 -86 -34 -92
-32 -7 3 -29 56 -48 118 -35 113 -126 474 -126 501 0 10 43 25 138 50 166 44
169 44 209 46 31 1 32 -1 56 -76z m550 -343 c9 0 20 7 25 16 5 9 14 14 20 10
9 -5 8 -12 0 -25 -10 -16 -7 -24 20 -51 18 -18 55 -44 83 -59 l50 -28 -188 -7
c-103 -4 -216 -10 -250 -15 -35 -4 -63 -5 -63 -2 1 13 95 62 98 52 7 -20 42
-12 42 9 0 13 -7 20 -19 20 -15 0 -19 6 -18 27 3 33 24 42 29 11 2 -17 10 -23
28 -23 35 0 36 46 1 55 -22 5 -22 7 -7 19 14 12 19 11 34 -3 25 -22 49 -20 63
6 11 20 13 20 24 5 7 -9 19 -17 28 -17z m212 -12 c-4 -36 -17 -59 -29 -55 -18
6 -18 43 -1 61 23 22 34 20 30 -6z m51 7 c4 -8 12 -15 19 -15 20 0 30 -21 15
-30 -17 -10 -3 -31 15 -23 8 3 15 1 15 -4 0 -17 -31 -53 -46 -53 -20 0 -29 27
-14 45 17 20 4 65 -19 65 -10 0 -18 7 -18 15 0 8 6 15 14 15 7 0 16 -7 19 -15z
m-27 -245 c14 -64 14 -60 -7 -60 -13 0 -22 12 -31 39 -6 21 -17 41 -25 44 -13
5 -254 -15 -334 -29 -23 -3 -45 -11 -48 -15 -8 -14 43 -29 104 -30 l57 -1 -55
-14 c-49 -12 -62 -12 -117 3 -68 19 -76 27 -40 38 21 6 20 7 -11 17 -25 8 -39
8 -60 -3 -15 -7 -30 -15 -34 -17 -5 -2 -8 5 -8 16 0 11 7 22 15 26 27 10 324
31 487 34 l96 2 11 -50z m-489 -122 c106 -23 125 -35 140 -87 21 -76 -24 -150
-104 -172 -94 -26 -339 26 -397 83 -48 49 -39 115 23 159 71 51 158 56 338 17z
m247 -2 c1 -1 -14 -6 -32 -12 -30 -9 -37 -8 -52 9 -18 19 -17 19 32 12 28 -4
51 -8 52 -9z m499 -17 c24 -20 65 -112 100 -229 49 -163 51 -229 6 -316 -48
-95 -239 -371 -285 -413 -23 -21 -60 -54 -82 -75 l-40 -37 38 6 c21 3 46 9 55
12 9 3 4 -6 -13 -21 -37 -31 -15 -35 33 -6 l33 20 -11 -21 c-42 -77 -131 -138
-234 -159 -50 -10 -64 -10 -101 5 -24 9 -49 23 -57 32 -11 15 -11 16 5 10 20
-7 67 1 67 12 0 3 -23 20 -51 36 -87 51 -145 101 -172 148 -15 25 -27 47 -27
49 0 2 27 0 60 -6 52 -9 71 -7 138 13 92 27 138 59 163 115 46 100 0 185 -109
202 l-43 7 21 22 c17 18 39 24 128 34 59 6 117 14 129 17 17 5 24 1 29 -12 16
-50 27 -74 34 -74 4 0 12 48 19 108 13 115 33 230 53 300 10 36 10 45 -2 52
-20 12 -49 -6 -68 -42 -44 -81 -141 -158 -199 -158 -47 0 -93 25 -93 52 0 13
27 48 73 92 65 63 76 78 90 132 25 91 33 98 119 105 82 7 177 1 194 -12z
m-721 -331 c88 -25 134 -49 174 -88 38 -38 39 -69 5 -104 -51 -50 -151 -59
-274 -25 -165 45 -219 111 -176 214 l15 35 93 -6 c51 -3 124 -15 163 -26z
m495 -97 l0 -48 -86 -7 c-48 -3 -99 -9 -113 -12 -19 -5 -23 -4 -16 5 6 6 40
14 75 17 79 8 100 18 100 47 0 23 17 47 32 47 4 0 8 -22 8 -49z m-470 -218
c80 -4 118 -11 159 -29 29 -13 58 -24 64 -24 20 0 47 -33 47 -57 0 -72 -68
-115 -180 -115 -103 0 -178 24 -222 71 -31 33 -38 48 -38 80 0 22 5 52 10 66
8 22 15 26 33 20 12 -3 69 -9 127 -12z"/>
<path d="M690 2158 c-113 -25 -200 -51 -210 -63 -7 -9 -7 -21 0 -39 5 -15 16
-57 25 -94 21 -94 97 -332 106 -332 10 0 2 51 -22 158 -19 84 -25 147 -8 82
37 -138 79 -252 79 -214 0 5 -7 61 -16 123 -8 62 -14 115 -11 117 2 2 16 -42
31 -99 15 -57 32 -110 36 -117 16 -26 20 -4 11 51 -24 140 -22 149 12 56 45
-124 65 -111 36 22 -14 64 -5 60 20 -8 21 -59 36 -79 48 -67 6 5 -3 63 -22
156 -3 14 4 0 16 -30 42 -110 52 -131 63 -127 24 8 -18 312 -53 393 -19 41
-22 44 -58 43 -21 -1 -58 -6 -83 -11z"/>
<path d="M1341 1776 c-16 -19 -7 -46 14 -46 22 0 30 29 13 46 -13 13 -16 13
-27 0z"/>
<path d="M1285 1720 c-8 -14 3 -30 21 -30 8 0 14 9 14 20 0 21 -24 28 -35 10z"/>
<path d="M1402 1719 c2 -6 8 -10 13 -10 5 0 11 4 13 10 2 6 -4 11 -13 11 -9 0
-15 -5 -13 -11z"/>
<path d="M1580 1770 c0 -5 5 -10 11 -10 5 0 7 5 4 10 -3 6 -8 10 -11 10 -2 0
-4 -4 -4 -10z"/>
<path d="M1670 1685 c0 -8 4 -15 9 -15 5 0 11 7 15 15 3 9 0 15 -9 15 -8 0
-15 -7 -15 -15z"/>
<path d="M1870 1331 c0 -6 5 -13 10 -16 6 -3 10 1 10 9 0 9 -4 16 -10 16 -5 0
-10 -4 -10 -9z"/>
<path d="M1885 1270 c3 -5 8 -10 11 -10 2 0 4 5 4 10 0 6 -5 10 -11 10 -5 0
-7 -4 -4 -10z"/>
<path d="M1821 701 c-7 -5 -11 -13 -7 -19 3 -5 -1 -13 -10 -16 -8 -3 -13 -10
-9 -15 11 -19 48 5 51 32 3 29 -2 32 -25 18z"/>
<path d="M1780 604 c0 -8 5 -12 10 -9 6 3 10 10 10 16 0 5 -4 9 -10 9 -5 0
-10 -7 -10 -16z"/>
</g>
</svg>
