<?xml version="1.0" standalone="no"?>
<!DOCTYPE svg PUBLIC "-//W3C//DTD SVG 20010904//EN"
 "http://www.w3.org/TR/2001/REC-SVG-20010904/DTD/svg10.dtd">
<svg version="1.0" xmlns="http://www.w3.org/2000/svg"
 width="200.000000pt" height="200.000000pt" viewBox="0 0 200.000000 200.000000"
 preserveAspectRatio="xMidYMid meet">

<g transform="translate(0.000000,200.000000) scale(0.100000,-0.100000)"
fill="#000000" stroke="none">
<path d="M1280 1981 c0 -10 27 -48 60 -84 33 -36 71 -89 85 -119 23 -50 32
-107 19 -121 -4 -3 -33 7 -65 23 -32 17 -98 42 -146 57 -77 23 -106 26 -228
27 -120 1 -151 -3 -215 -23 -85 -26 -140 -52 -188 -88 -32 -24 -34 -24 -107
-12 -170 27 -335 -35 -335 -125 0 -43 68 -178 131 -262 l45 -59 -4 -90 -4 -90
-89 -115 c-49 -63 -89 -121 -89 -128 0 -26 65 -79 122 -100 32 -12 86 -23 119
-24 l62 -3 41 -80 c47 -91 79 -139 187 -280 86 -112 109 -153 109 -189 0 -86
92 -125 156 -65 19 18 22 18 34 4 18 -21 70 -19 95 5 20 19 23 19 62 4 38 -15
43 -15 78 2 21 10 46 32 57 50 18 30 21 32 49 22 46 -16 108 5 122 41 6 18 21
31 41 37 17 5 35 19 41 31 5 12 21 24 36 27 35 7 69 43 69 73 0 17 6 23 24 23
63 0 106 33 106 81 0 12 11 32 25 45 32 29 32 59 1 87 l-24 23 18 67 c66 238
44 514 -56 707 -46 90 -139 203 -188 229 -14 8 -26 18 -26 22 0 4 26 20 57 35
45 22 72 28 132 30 92 2 86 0 105 20 24 23 19 60 -10 83 -34 27 -113 28 -170
2 l-42 -19 5 39 c7 46 -16 79 -53 79 -32 0 -42 -24 -41 -98 0 -35 -5 -68 -11
-74 -9 -9 -12 -1 -12 32 0 74 -71 198 -138 242 -35 23 -52 23 -52 -1z m91 -63
c47 -61 42 -63 -15 -8 -31 30 -56 58 -56 62 0 14 44 -20 71 -54z m184 -120 c0
-48 -6 -64 -33 -104 -18 -25 -31 -48 -29 -51 3 -2 24 19 48 46 45 51 100 82
141 80 20 -1 21 -2 3 -6 -55 -12 -86 -26 -109 -50 -33 -33 -29 -37 17 -18 22
9 67 15 111 15 41 0 78 5 81 10 9 15 -12 38 -38 43 -21 4 -21 4 -1 6 11 0 29
-5 40 -13 15 -12 17 -18 8 -33 -9 -14 -29 -19 -100 -23 -91 -6 -136 -22 -181
-62 -35 -32 -45 -13 -21 37 12 25 25 45 28 45 4 0 3 25 -1 56 -9 64 -3 86 20
82 12 -3 16 -16 16 -60z m-420 -77 c17 -4 -26 -5 -95 -3 -139 5 -201 -5 -345
-52 -11 -3 0 3 24 15 24 11 71 27 105 34 64 14 259 18 311 6z m90 -21 c25 -11
-1 -11 -35 0 -20 6 -21 8 -5 8 11 0 29 -3 40 -8z m130 -49 c210 -102 341 -257
396 -470 24 -89 35 -298 21 -381 -7 -43 -8 -25 -5 80 5 142 -4 221 -25 228 -6
2 -12 -4 -12 -13 0 -10 -5 -13 -12 -9 -8 5 -4 13 12 26 22 18 23 21 11 71 -17
74 -81 209 -95 199 -7 -5 -18 -1 -28 10 -19 20 -10 26 10 6 6 -6 14 -9 17 -6
10 9 -85 115 -138 155 -73 55 -118 81 -195 114 -37 16 -61 29 -53 29 8 0 51
-18 96 -39z m-560 -4 c17 6 18 5 5 -9 -16 -17 -40 -7 -40 16 0 7 3 6 8 -2 5
-8 16 -10 27 -5z m471 -22 c3 -8 22 -17 42 -21 41 -7 87 -28 97 -44 3 -5 -10
0 -30 11 -54 32 -128 31 -188 -4 -25 -15 -51 -35 -56 -45 -6 -9 -11 -12 -11
-5 0 17 70 72 104 81 32 9 48 32 21 32 -9 0 -26 -5 -38 -11 -21 -10 -21 -10
-3 5 25 20 55 20 62 1z m-679 -25 c34 -12 90 -38 125 -59 53 -32 68 -47 92
-95 26 -51 30 -72 34 -165 5 -128 -19 -244 -75 -361 -49 -103 -155 -209 -233
-235 -108 -37 -264 -14 -338 50 -39 34 -34 42 151 268 79 95 87 110 75 125 -7
9 -36 44 -63 77 -101 120 -195 298 -179 339 8 20 64 55 117 72 60 20 215 11
294 -16z m128 -10 c-3 -5 11 -20 32 -33 42 -26 104 -92 123 -129 15 -28 5 -18
-39 40 -18 23 -54 57 -80 74 -25 17 -48 32 -50 34 -4 3 9 24 15 24 3 0 2 -4
-1 -10z m570 -30 c-11 -5 -33 -11 -48 -15 -35 -7 -106 -77 -132 -130 -10 -22
-22 -60 -26 -85 -6 -43 -6 -44 -8 -9 -1 40 20 98 53 144 11 17 21 34 21 39 0
15 63 49 104 57 50 9 60 9 36 -1z m134 -38 c19 -16 49 -45 65 -66 30 -36 31
-41 28 -122 -6 -173 -72 -264 -205 -285 -58 -9 -70 -8 -105 10 -23 11 -43 25
-47 31 -10 16 1 12 41 -15 32 -22 84 -34 84 -20 0 2 -20 13 -44 24 -68 30
-126 138 -126 234 1 62 54 155 105 184 94 53 210 9 268 -102 15 -29 22 -35 25
-22 10 46 -77 144 -154 173 l-39 15 35 -6 c19 -3 50 -18 69 -33z m195 -161
c-5 -6 -34 20 -34 30 0 5 8 1 18 -8 10 -10 17 -20 16 -22z m-726 -6 c-3 -3 -9
2 -12 12 -6 14 -5 15 5 6 7 -7 10 -15 7 -18z m-21 -27 c-3 -8 -6 -5 -6 6 -1
11 2 17 5 13 3 -3 4 -12 1 -19z m11 -156 c-5 -2 -8 -18 -8 -35 0 -18 -9 -58
-20 -91 -11 -32 -17 -63 -13 -70 4 -7 2 -8 -5 -1 -8 7 -5 30 9 80 11 39 23
113 27 165 l7 95 5 -70 c3 -38 2 -71 -2 -73z m202 -13 c6 -11 8 -24 5 -30 -8
-12 14 -41 25 -34 4 2 18 -7 31 -22 26 -29 12 -24 -39 15 -18 13 -31 30 -28
37 2 7 -2 30 -9 51 -8 22 -14 55 -13 74 0 28 2 24 9 -18 5 -29 14 -62 19 -73z
m-697 -24 c17 -24 17 -26 -4 -55 -13 -16 -24 -30 -26 -30 -2 0 -3 25 -2 55 1
30 5 55 8 55 3 0 14 -12 24 -25z m525 0 c-3 -3 -9 2 -12 12 -6 14 -5 15 5 6 7
-7 10 -15 7 -18z m222 0 c0 -8 -2 -15 -4 -15 -2 0 -6 7 -10 15 -3 8 -1 15 4
15 6 0 10 -7 10 -15z m-210 -55 c-12 -23 -31 -23 -38 1 -3 11 -2 11 7 -1 10
-13 12 -13 21 0 5 8 10 22 11 30 0 9 2 11 5 3 3 -7 0 -21 -6 -33z m27 -15 c-4
-8 -12 -15 -19 -14 -10 0 -10 2 0 6 6 2 12 12 12 21 0 8 3 13 6 9 4 -3 4 -13
1 -22z m763 -24 c0 -21 -13 -4 -17 22 -2 17 -1 19 7 7 5 -8 10 -21 10 -29z
m-228 -16 c-6 -34 16 -32 24 2 7 24 8 25 14 8 4 -11 4 -22 0 -25 -4 -3 -11
-13 -16 -23 -9 -16 -11 -16 -23 7 -8 14 -11 32 -8 40 10 24 15 19 9 -9z m261
10 c4 -8 2 -17 -3 -20 -6 -4 -10 3 -10 14 0 25 6 27 13 6z m-66 -37 c-3 -8 -6
-5 -6 6 -1 11 2 17 5 13 3 -3 4 -12 1 -19z m-137 -7 c-5 -11 -15 -23 -21 -27
-6 -3 -3 5 6 20 20 30 30 35 15 7z m177 -3 c-3 -8 -6 -5 -6 6 -1 11 2 17 5 13
3 -3 4 -12 1 -19z m-884 -42 c4 -10 1 -13 -8 -9 -8 3 -12 9 -9 14 7 12 11 11
17 -5z m-3 -29 c0 -2 -10 -12 -22 -23 l-23 -19 19 23 c18 21 26 27 26 19z
m-97 -126 c-65 -64 -111 -98 -160 -122 -37 -18 -70 -34 -72 -35 -6 -5 43 -94
52 -94 5 0 6 7 3 15 -17 41 -16 47 1 20 16 -24 17 -32 7 -38 -11 -6 -9 -16 10
-45 39 -63 218 -297 225 -295 3 0 15 -10 25 -25 11 -14 14 -22 8 -18 -7 4 -12
6 -12 4 7 -47 31 -104 44 -106 34 -7 62 8 84 45 12 21 22 32 22 24 0 -8 -11
-29 -26 -48 -18 -24 -33 -33 -54 -33 -44 0 -60 10 -60 36 0 43 -25 85 -143
244 -103 138 -184 262 -203 313 -4 12 -1 17 13 17 42 0 141 63 228 145 50 46
92 84 95 84 3 0 -36 -40 -87 -88z m1008 -156 c-25 -91 -25 -82 -1 -88 28 -7
25 -31 -6 -52 -21 -13 -25 -22 -21 -44 8 -37 -8 -51 -58 -51 -48 0 -65 -13
-65 -50 0 -31 -25 -57 -60 -62 -15 -2 -30 -14 -38 -30 -9 -18 -21 -28 -36 -28
-26 0 -46 -17 -46 -42 0 -22 -29 -38 -69 -38 -23 0 -29 4 -25 15 13 32 -23 13
-71 -40 -28 -30 -58 -55 -66 -55 -8 0 0 9 17 19 17 10 41 35 53 54 26 43 59
57 76 33 20 -26 75 -17 75 12 0 23 30 52 54 52 12 0 26 9 31 22 10 22 18 27
68 47 21 8 27 17 27 39 0 39 26 60 80 64 38 3 45 6 43 23 -5 35 6 63 27 70 26
8 26 31 0 38 -15 4 -20 14 -20 42 0 24 4 34 11 29 8 -4 9 0 4 15 -3 12 -2 21
4 21 5 0 13 21 17 48 4 26 10 39 12 30 2 -10 -6 -51 -17 -93z m-1198 -10 c-3
-9 -8 -14 -10 -11 -3 3 -2 9 2 15 9 16 15 13 8 -4z m55 -57 c8 -10 11 -18 6
-18 -10 0 -44 52 -44 67 0 4 6 -1 12 -12 6 -11 18 -28 26 -37z m44 -7 c9 -11
8 -13 -3 -9 -7 2 -22 20 -32 39 l-19 34 21 -25 c12 -14 26 -31 33 -39z m24 40
c15 12 34 4 34 -14 0 -7 -4 -6 -10 3 -8 13 -11 13 -22 -3 -12 -16 -14 -16 -27
5 -10 17 -10 20 0 11 9 -9 16 -9 25 -2z m991 -51 c3 0 11 7 18 17 10 13 13 14
20 2 5 -8 5 -11 0 -7 -4 4 -13 0 -20 -9 -16 -22 -35 -8 -34 25 l2 27 4 -27 c2
-16 7 -28 10 -28z m-494 26 c8 3 18 0 23 -7 5 -8 3 -10 -6 -4 -7 4 -15 2 -19
-4 -5 -8 -14 -4 -27 11 -12 14 -13 18 -3 10 9 -7 23 -10 32 -6z m-3 -49 c13
-5 13 -6 -1 -6 -8 -1 -28 14 -45 32 l-29 32 30 -26 c17 -15 37 -29 45 -32z
m462 28 c3 -13 1 -22 -3 -19 -9 5 -13 44 -5 44 2 0 6 -11 8 -25z m-499 -35 c6
0 8 -3 5 -6 -10 -9 -47 15 -59 39 -10 19 -8 18 16 -5 15 -16 32 -28 38 -28z
m318 -157 c13 -16 12 -17 -4 -4 -22 17 -35 7 -17 -14 7 -8 10 -22 6 -30 -8
-22 -40 -18 -62 8 -19 22 -19 22 2 5 26 -22 54 -23 54 -2 0 8 -4 12 -10 9 -5
-3 -20 1 -32 10 -22 16 -22 17 -2 11 15 -5 24 -1 28 9 7 20 20 19 37 -2z
m-649 -18 c21 8 45 -22 29 -38 -9 -9 -19 -3 -44 23 -17 18 -25 28 -16 22 9 -7
23 -10 31 -7z m-31 -32 c13 -16 12 -17 -3 -4 -10 7 -18 15 -18 17 0 8 8 3 21
-13z m163 -133 c18 0 22 16 6 23 -6 3 -5 4 2 3 24 -5 18 -24 -13 -40 -33 -17
-54 -11 -80 20 -9 11 -2 9 18 -6 42 -30 54 -19 17 15 l-29 27 32 -21 c17 -12
38 -21 47 -21z m94 -118 c15 -11 14 -12 -5 -2 -18 8 -23 19 -22 43 l2 32 4
-30 c3 -16 12 -35 21 -43z m113 33 c19 -8 29 -14 22 -15 -7 0 -24 5 -38 12
-22 10 -28 9 -41 -10 -8 -12 -20 -22 -26 -22 -6 0 -1 11 12 25 28 29 28 29 71
10z"/>
<path d="M1527 1843 c-3 -5 -3 -30 0 -56 7 -56 23 -45 23 15 0 35 -13 57 -23
41z"/>
<path d="M210 1550 c-16 -11 -15 -11 18 -15 12 -1 21 2 19 8 -5 15 -20 18 -37
7z"/>
<path d="M260 1551 c0 -5 5 -13 10 -16 6 -3 10 -2 10 4 0 5 -4 13 -10 16 -5 3
-10 2 -10 -4z"/>
<path d="M295 1540 c3 -5 8 -10 11 -10 2 0 4 5 4 10 0 6 -5 10 -11 10 -5 0 -7
-4 -4 -10z"/>
<path d="M200 1496 c0 -22 116 -193 196 -289 l74 -89 -22 -31 c-12 -18 -40
-54 -63 -82 -22 -27 -72 -90 -110 -139 l-68 -89 50 7 c191 25 365 133 490 302
43 59 48 63 54 42 l5 -23 7 25 c11 42 8 51 -30 87 -116 108 -301 226 -408 261
-84 27 -175 37 -175 18z"/>
<path d="M710 890 c0 -5 5 -10 10 -10 6 0 10 5 10 10 0 6 -4 10 -10 10 -5 0
-10 -4 -10 -10z"/>
<path d="M673 838 c-12 -18 -20 -34 -18 -37 8 -7 45 31 39 40 -3 5 0 9 5 9 6
0 11 5 11 10 0 19 -15 10 -37 -22z"/>
<path d="M1285 1420 c-34 -13 -63 -53 -73 -96 -18 -81 35 -164 106 -164 45 0
92 46 92 90 0 27 -2 30 -19 20 -28 -15 -71 4 -71 31 0 12 14 37 31 57 l32 36
-23 18 c-24 19 -43 22 -75 8z"/>
<path d="M360 1110 c0 -32 1 -33 17 -17 16 16 16 18 0 34 -16 16 -17 15 -17
-17z"/>
<path d="M792 329 c2 -7 10 -15 17 -17 8 -3 12 1 9 9 -2 7 -10 15 -17 17 -8 3
-12 -1 -9 -9z"/>
</g>
</svg>
